<?xml version="1.0" encoding="utf-8"?>
<!-- Generator: Adobe Illustrator 15.1.0, SVG Export Plug-In . SVG Version: 6.00 Build 0)  -->
<!DOCTYPE svg PUBLIC "-//W3C//DTD SVG 1.1//EN" "http://www.w3.org/Graphics/SVG/1.1/DTD/svg11.dtd">
<svg version="1.1" id="Layer_1" xmlns="http://www.w3.org/2000/svg" xmlns:xlink="http://www.w3.org/1999/xlink" x="0px" y="0px"
	 width="31.961px" height="16.25px" viewBox="0 0 31.961 16.25" enable-background="new 0 0 31.961 16.25" xml:space="preserve">
<path fill="#FFFFFF" d="M30.48,13.623c-18.246,0-24.959-7.12-27.128-10.524c1.66,0.324,4.026,0.626,6.202,0.327
	c0.547-0.076,0.929-0.58,0.854-1.127c-0.076-0.547-0.587-0.932-1.127-0.854c-3.357,0.461-7.469-0.766-7.51-0.779
	C1.724,0.651,1.676,0.649,1.628,0.642c-0.025-0.004-0.048-0.01-0.073-0.012C1.441,0.621,1.328,0.634,1.218,0.664
	c-0.01,0.003-0.021,0-0.031,0.003C1.171,0.672,1.161,0.684,1.146,0.689c-0.1,0.036-0.195,0.085-0.281,0.152
	C0.854,0.85,0.842,0.855,0.831,0.864C0.828,0.867,0.825,0.868,0.822,0.871C0.738,0.944,0.675,1.032,0.621,1.125
	C0.607,1.149,0.596,1.173,0.584,1.198C0.537,1.296,0.502,1.399,0.49,1.507c0,0.006-0.003,0.012-0.004,0.018
	C0.478,1.61,0.479,1.698,0.494,1.785c0.007,0.045,0.75,4.581,1.18,8.753c0.053,0.515,0.487,0.897,0.994,0.897
	c0.034,0,0.069-0.001,0.104-0.005c0.549-0.057,0.949-0.548,0.892-1.097c-0.141-1.371-0.315-2.78-0.487-4.061
	c3.458,4.018,11.094,9.351,27.305,9.351c0.552,0,1-0.448,1-1S31.033,13.623,30.48,13.623z"/>
</svg>
