<?xml version="1.0" encoding="utf-8"?>
<!-- Generator: Adobe Illustrator 15.1.0, SVG Export Plug-In . SVG Version: 6.00 Build 0)  -->
<!DOCTYPE svg PUBLIC "-//W3C//DTD SVG 1.1//EN" "http://www.w3.org/Graphics/SVG/1.1/DTD/svg11.dtd">
<svg version="1.1" id="Layer_1" xmlns="http://www.w3.org/2000/svg" xmlns:xlink="http://www.w3.org/1999/xlink" x="0px" y="0px"
	 width="52px" height="52px" viewBox="0 0 52 52" enable-background="new 0 0 52 52" xml:space="preserve">
<g>
	<path d="M26,0c-0.006,0-0.013,0-0.02,0c-0.002,0-0.005,0-0.007,0c-0.004,0-0.008,0-0.012,0c-0.003,0-0.006,0-0.009,0
		c-0.003,0-0.007,0-0.011,0c-0.002,0-0.005,0-0.008,0c-0.003,0-0.008,0-0.012,0c-0.003,0-0.005,0-0.008,0c-0.004,0-0.008,0-0.013,0
		c-0.002,0-0.005,0-0.007,0c-0.005,0-0.01,0-0.016,0c-0.001,0-0.003,0-0.004,0c-0.007,0-0.013,0-0.02,0c-0.002,0-0.003,0-0.005,0
		c-0.004,0-0.009,0-0.014,0c-0.003,0-0.006,0-0.008,0c-0.004,0-0.007,0-0.012,0c-0.003,0-0.005,0-0.008,0c-0.003,0-0.008,0-0.012,0
		c-0.002,0-0.005,0-0.008,0c-0.004,0-0.008,0-0.013,0c-0.002,0-0.005,0-0.007,0c-0.004,0-0.009,0-0.014,0c-0.002,0-0.004,0-0.006,0
		c-0.007,0-0.013,0-0.02,0c-0.001,0-0.003,0-0.004,0c-0.005,0-0.01,0-0.016,0c-0.002,0-0.004,0-0.007,0c-0.004,0-0.008,0-0.013,0
		c-0.002,0-0.005,0-0.007,0c-0.004,0-0.009,0-0.012,0c-0.003,0-0.006,0-0.008,0c-0.004,0-0.008,0-0.012,0c-0.003,0-0.005,0-0.008,0
		c-0.004,0-0.01,0-0.014,0c-0.001,0-0.003,0-0.005,0c-0.007,0-0.013,0-0.02,0H25.6c-0.006,0-0.013,0-0.019,0
		c-0.002,0-0.004,0-0.006,0c-0.004,0-0.01,0-0.014,0c-0.002,0-0.004,0-0.007,0c-0.004,0-0.008,0-0.013,0c-0.002,0-0.005,0-0.008,0
		c-0.004,0-0.008,0-0.012,0c-0.002,0-0.005,0-0.008,0c-0.004,0-0.008,0-0.012,0c-0.002,0-0.005,0-0.007,0c-0.006,0-0.012,0-0.018,0
		c0,0-0.001,0-0.001,0c-0.007,0-0.013,0-0.02,0c-0.002,0-0.003,0-0.005,0c-0.004,0-0.01,0-0.015,0c-0.002,0-0.004,0-0.006,0
		c-0.004,0-0.009,0-0.013,0c-0.002,0-0.005,0-0.007,0c-0.003,0-0.009,0-0.013,0c-0.002,0-0.005,0-0.007,0c-0.004,0-0.008,0-0.013,0
		c-0.002,0-0.005,0-0.007,0c-0.004,0-0.01,0-0.014,0c-0.002,0-0.003,0-0.005,0c-0.007,0-0.012,0-0.019,0c-0.002,0-0.004,0-0.007,0
		c-0.004,0-0.009,0-0.013,0c-0.002,0-0.005,0-0.007,0c-0.004,0-0.008,0-0.012,0c-0.003,0-0.005,0-0.008,0c-0.003,0-0.009,0-0.012,0
		c-0.002,0-0.005,0-0.008,0c-0.004,0-0.008,0-0.012,0c-0.002,0-0.005,0-0.007,0c-0.004,0-0.009,0-0.014,0c-0.002,0-0.004,0-0.006,0
		c-0.007,0-0.013,0-0.02,0c-0.001,0-0.002,0-0.003,0c-0.005,0-0.011,0-0.016,0c-0.002,0-0.005,0-0.007,0c-0.004,0-0.008,0-0.012,0
		c-0.003,0-0.006,0-0.008,0c-0.004,0-0.008,0-0.012,0c-0.002,0-0.005,0-0.008,0c-0.004,0-0.008,0-0.013,0c-0.002,0-0.004,0-0.007,0
		c-0.004,0-0.009,0-0.013,0c-0.002,0-0.004,0-0.007,0c-0.005,0-0.013,0-0.018,0.001c0,0-0.001,0-0.002,0c-0.007,0-0.012,0-0.019,0
		c-0.002,0-0.004,0-0.005,0c-0.004,0-0.01,0-0.014,0c-0.002,0-0.005,0-0.007,0c-0.004,0-0.008,0-0.012,0c-0.002,0-0.005,0-0.008,0
		c-0.003,0-0.008,0-0.012,0c-0.003,0-0.005,0-0.008,0c-0.004,0-0.009,0-0.014,0c-0.002,0-0.004,0-0.006,0c-0.005,0-0.013,0-0.018,0
		c-0.001,0-0.001,0-0.002,0c-0.007,0-0.013,0-0.02,0.001c-0.001,0-0.002,0-0.004,0c-0.005,0-0.01,0-0.016,0.001
		c-0.002,0-0.004,0-0.007,0c-0.004,0-0.008,0-0.013,0c-0.002,0-0.005,0-0.007,0c-0.004,0-0.008,0-0.013,0c-0.002,0-0.005,0-0.007,0
		c-0.004,0-0.009,0-0.014,0c-0.002,0-0.004,0-0.006,0c-0.004,0-0.011,0-0.015,0.001c-0.001,0-0.003,0-0.005,0
		c-0.007,0-0.013,0-0.02,0.001c-0.001,0-0.002,0-0.003,0c-0.005,0-0.011,0-0.016,0.001c-0.002,0-0.004,0-0.006,0
		c-0.004,0-0.009,0-0.014,0.001c-0.002,0-0.004,0-0.007,0c-0.003,0-0.009,0-0.012,0.001c-0.003,0-0.005,0-0.008,0
		c-0.004,0-0.008,0-0.013,0c-0.002,0-0.005,0-0.007,0c-0.004,0-0.01,0-0.014,0.001c-0.002,0-0.003,0-0.005,0
		c-0.007,0-0.013,0-0.02,0.001c0,0-0.001,0-0.001,0c-0.006,0-0.012,0-0.018,0.001c-0.002,0-0.005,0-0.007,0
		c-0.004,0-0.008,0-0.012,0c-0.002,0-0.005,0-0.008,0c-0.003,0-0.008,0-0.012,0c-0.002,0-0.005,0-0.008,0c-0.003,0-0.008,0-0.012,0
		c-0.002,0-0.005,0-0.007,0c-0.004,0-0.008,0-0.013,0.001c-0.002,0-0.005,0-0.007,0c-0.013,0.001-0.025,0.001-0.039,0.002
		c-0.002,0-0.004,0-0.006,0c-0.004,0-0.009,0-0.014,0.001c-0.002,0-0.005,0-0.008,0c-0.003,0-0.008,0-0.011,0
		c-0.003,0-0.005,0-0.008,0c-0.004,0-0.008,0-0.012,0c-0.002,0-0.005,0-0.008,0c-0.004,0-0.008,0-0.012,0.001
		c-0.003,0-0.005,0-0.008,0c-0.004,0-0.01,0-0.014,0c-0.002,0-0.003,0-0.005,0c-0.007,0-0.012,0.001-0.02,0.001
		c-0.001,0-0.003,0-0.005,0c-0.004,0-0.01,0-0.015,0.001c-0.002,0-0.004,0-0.006,0c-0.004,0-0.008,0-0.013,0
		c-0.003,0-0.005,0-0.008,0c-0.003,0-0.008,0-0.012,0.001c-0.002,0-0.005,0-0.007,0c-0.004,0-0.008,0-0.012,0
		c-0.002,0-0.005,0-0.008,0c-0.004,0-0.009,0.001-0.014,0.001c-0.002,0-0.003,0-0.005,0c-0.007,0-0.013,0.001-0.02,0.001
		c-0.001,0-0.002,0-0.003,0c-0.006,0-0.011,0-0.017,0.001c-0.002,0-0.004,0-0.005,0c-0.004,0-0.01,0-0.014,0.001
		c-0.002,0-0.005,0-0.007,0c-0.004,0-0.008,0-0.013,0c-0.002,0-0.005,0-0.007,0c-0.004,0-0.008,0-0.012,0.001
		c-0.002,0-0.005,0-0.007,0c-0.004,0-0.008,0-0.013,0.001c-0.002,0-0.005,0-0.007,0c-0.005,0-0.012,0-0.017,0.001
		c-0.001,0-0.003,0-0.004,0c-0.005,0-0.013,0.001-0.018,0.001c-0.002,0-0.004,0-0.006,0c-0.004,0-0.009,0.001-0.013,0.001
		c-0.002,0-0.005,0-0.008,0c-0.003,0-0.008,0.001-0.012,0.001c-0.002,0-0.005,0-0.008,0c-0.003,0-0.008,0-0.011,0.001
		c-0.003,0-0.006,0-0.008,0c-0.004,0-0.008,0-0.013,0.001c-0.002,0-0.004,0-0.006,0c-0.005,0-0.011,0.001-0.016,0.001
		c-0.001,0-0.002,0-0.003,0c-0.007,0-0.013,0.001-0.02,0.001c-0.002,0-0.003,0-0.005,0c-0.004,0-0.009,0-0.014,0.001
		c-0.002,0-0.005,0-0.008,0c-0.004,0-0.008,0-0.012,0.001c-0.002,0-0.005,0-0.008,0c-0.003,0-0.009,0.001-0.012,0.001
		c-0.002,0-0.005,0-0.007,0c-0.004,0-0.009,0.001-0.013,0.001c-0.002,0-0.004,0-0.007,0c-0.004,0-0.01,0.001-0.014,0.001
		c-0.002,0-0.004,0-0.006,0c-0.007,0-0.012,0.001-0.019,0.001c-0.001,0-0.003,0-0.004,0c-0.004,0-0.011,0.001-0.015,0.001
		c-0.002,0-0.004,0-0.006,0c-0.004,0-0.009,0-0.013,0.001c-0.002,0-0.004,0-0.007,0c-0.003,0-0.009,0.001-0.013,0.001
		c-0.002,0-0.004,0-0.007,0.001c-0.004,0-0.008,0-0.013,0.001c-0.002,0-0.004,0-0.006,0c-0.004,0-0.01,0.001-0.014,0.001
		c-0.002,0-0.004,0-0.005,0c-0.013,0.001-0.026,0.002-0.039,0.003c-0.002,0-0.004,0-0.006,0c-0.004,0-0.009,0.001-0.014,0.001
		c-0.002,0-0.004,0-0.006,0.001c-0.004,0-0.009,0-0.013,0.001c-0.002,0-0.005,0-0.007,0c-0.004,0-0.008,0.001-0.013,0.001
		c-0.002,0-0.004,0-0.007,0.001c-0.004,0-0.008,0-0.012,0.001c-0.002,0-0.005,0-0.007,0c-0.004,0-0.011,0.001-0.015,0.001
		c-0.001,0-0.003,0-0.005,0c-0.007,0-0.012,0.001-0.019,0.001c-0.002,0-0.004,0-0.006,0c-0.004,0-0.008,0.001-0.013,0.001
		c-0.002,0-0.005,0-0.008,0c-0.004,0-0.007,0.001-0.012,0.001c-0.002,0-0.005,0-0.008,0.001c-0.003,0-0.008,0-0.012,0.001
		c-0.002,0-0.005,0-0.007,0.001c-0.004,0-0.008,0-0.013,0.001c-0.002,0-0.005,0-0.007,0c-0.004,0-0.01,0.001-0.014,0.001
		c-0.002,0-0.004,0-0.006,0c-0.007,0-0.012,0.001-0.019,0.002c-0.002,0-0.005,0-0.008,0c-0.003,0-0.008,0.001-0.012,0.001
		c-0.002,0-0.005,0.001-0.008,0.001c-0.004,0-0.007,0-0.011,0.001c-0.003,0-0.006,0-0.008,0.001c-0.003,0-0.008,0-0.011,0.001
		c-0.003,0-0.005,0-0.008,0.001c-0.004,0-0.007,0-0.011,0.001c-0.003,0-0.006,0-0.009,0.001c-0.004,0-0.007,0-0.012,0.001
		c-0.002,0-0.005,0-0.007,0.001c-0.004,0-0.01,0.001-0.014,0.001c-0.004,0-0.009,0.001-0.014,0.001c-0.003,0-0.006,0-0.009,0.001
		s-0.007,0.001-0.01,0.001c-0.003,0-0.006,0-0.009,0.001c-0.003,0-0.006,0.001-0.01,0.001c-0.003,0-0.006,0-0.009,0.001
		s-0.006,0-0.01,0.001s-0.006,0-0.009,0.001s-0.007,0.001-0.01,0.001c-0.003,0-0.006,0.001-0.01,0.001
		c-0.003,0-0.006,0.001-0.009,0.001c-0.003,0-0.008,0.001-0.011,0.001c-0.005,0-0.01,0.001-0.016,0.001c-0.003,0-0.007,0-0.01,0.001
		s-0.006,0.001-0.01,0.001c-0.003,0-0.006,0.001-0.009,0.001c-0.003,0-0.006,0.001-0.01,0.001c-0.003,0-0.006,0.001-0.01,0.001
		c-0.003,0-0.006,0-0.009,0.001c-0.003,0-0.006,0-0.009,0.001c-0.003,0-0.007,0-0.01,0.001c-0.002,0-0.006,0-0.009,0.001
		c-0.003,0-0.007,0-0.01,0.001c-0.003,0-0.008,0.001-0.012,0.001c-0.002,0-0.005,0-0.007,0c-0.006,0.001-0.012,0.001-0.018,0.002
		c-0.003,0-0.006,0.001-0.009,0.001c-0.003,0-0.007,0.001-0.01,0.001c-0.003,0-0.006,0-0.01,0.001c-0.002,0-0.007,0.001-0.009,0.001
		c-0.003,0-0.006,0.001-0.009,0.001c-0.003,0-0.007,0.001-0.01,0.001c-0.003,0-0.006,0-0.009,0.001c-0.002,0-0.007,0-0.01,0.001
		s-0.006,0-0.009,0.001c-0.003,0-0.006,0-0.009,0.001s-0.007,0.001-0.01,0.001c-0.006,0-0.012,0.001-0.018,0.002
		c-0.002,0-0.004,0-0.006,0c-0.004,0-0.008,0.001-0.012,0.001c-0.003,0-0.006,0.001-0.009,0.001c-0.002,0-0.007,0.001-0.01,0.001
		c-0.003,0-0.006,0-0.01,0.001c-0.003,0-0.005,0-0.008,0.001s-0.007,0.001-0.01,0.001s-0.006,0-0.009,0.001s-0.006,0.001-0.01,0.001
		c-0.003,0-0.006,0.001-0.009,0.001c-0.003,0-0.006,0-0.01,0.001s-0.007,0.001-0.011,0.001c-0.005,0-0.011,0.001-0.016,0.001
		c-0.003,0-0.007,0.001-0.01,0.001s-0.007,0.001-0.01,0.001c-0.003,0-0.005,0.001-0.009,0.001c-0.003,0-0.007,0-0.01,0.001
		s-0.006,0.001-0.009,0.001c-0.003,0-0.006,0.001-0.01,0.001s-0.006,0-0.009,0.001s-0.006,0.001-0.01,0.001
		c-0.003,0-0.006,0-0.009,0.001s-0.006,0.001-0.01,0.001c-0.003,0-0.007,0.001-0.01,0.001c-0.004,0-0.009,0.001-0.013,0.001
		c-0.004,0.001-0.009,0.001-0.013,0.002c-0.003,0-0.006,0-0.009,0.001c-0.003,0-0.006,0.001-0.01,0.001s-0.007,0-0.01,0.001
		c-0.002,0-0.006,0.001-0.009,0.001c-0.003,0-0.007,0-0.011,0.001c-0.003,0-0.005,0.001-0.008,0.001c-0.003,0-0.007,0-0.01,0.001
		c-0.002,0-0.006,0.001-0.009,0.001c-0.003,0-0.007,0-0.01,0.001c-0.003,0-0.007,0.001-0.01,0.001c-0.003,0-0.006,0-0.009,0.001
		c-0.006,0.001-0.012,0.001-0.018,0.002c-0.003,0-0.006,0.001-0.01,0.001c-0.003,0-0.006,0.001-0.01,0.001
		c-0.003,0-0.005,0.001-0.008,0.001c-0.004,0-0.006,0.001-0.011,0.001c-0.003,0-0.006,0.001-0.009,0.001
		c-0.003,0-0.007,0-0.01,0.001c-0.003,0-0.006,0.001-0.009,0.001c-0.002,0-0.006,0.001-0.009,0.001
		c-0.003,0-0.007,0.001-0.011,0.001c-0.003,0-0.004,0-0.008,0.001s-0.007,0.001-0.011,0.001c-0.002,0-0.005,0.001-0.008,0.001
		c-0.007,0.001-0.014,0.002-0.021,0.003c-0.002,0-0.005,0.001-0.007,0.001c-0.003,0-0.007,0.001-0.011,0.001
		c-0.003,0-0.005,0.001-0.008,0.001c-0.004,0-0.007,0.001-0.011,0.001c-0.002,0-0.006,0.001-0.008,0.001
		c-0.004,0-0.007,0.001-0.011,0.001c-0.002,0-0.005,0-0.008,0.001c-0.004,0-0.007,0.001-0.011,0.001
		c-0.002,0-0.005,0.001-0.007,0.001c-0.004,0-0.008,0.001-0.012,0.002c-0.002,0-0.003,0-0.005,0c-0.01,0.001-0.02,0.003-0.03,0.004
		l-0.001,0c-0.004,0-0.008,0.001-0.013,0.001c-0.002,0-0.004,0.001-0.006,0.001c-0.004,0-0.008,0.001-0.012,0.001
		c-0.002,0-0.005,0.001-0.008,0.001c-0.003,0-0.007,0.001-0.01,0.001c-0.002,0-0.006,0-0.009,0.001c-0.003,0-0.007,0.001-0.01,0.001
		c-0.002,0-0.005,0.001-0.008,0.001c-0.003,0-0.007,0.001-0.01,0.001c-0.003,0-0.005,0-0.007,0.001
		c-0.01,0.001-0.019,0.003-0.028,0.004h0c-0.004,0.001-0.009,0.001-0.013,0.002c-0.002,0-0.003,0-0.006,0.001
		c-0.004,0-0.008,0.001-0.012,0.002c-0.003,0-0.005,0-0.007,0.001c-0.003,0-0.007,0.001-0.011,0.001
		c-0.002,0-0.005,0.001-0.007,0.001c-0.003,0-0.007,0.001-0.011,0.002c-0.002,0-0.005,0-0.007,0.001
		c-0.004,0-0.008,0.001-0.011,0.001c-0.003,0-0.003,0-0.006,0.001c-0.015,0.002-0.029,0.004-0.043,0.006
		c-0.001,0-0.003,0.001-0.005,0.001c-0.004,0-0.008,0.001-0.012,0.002c-0.001,0-0.005,0-0.006,0.001
		c-0.004,0-0.008,0.001-0.012,0.001c-0.001,0-0.004,0.001-0.006,0.001c-0.004,0-0.008,0.001-0.012,0.001
		c-0.002,0-0.004,0.001-0.006,0.001c-0.004,0.001-0.008,0.001-0.012,0.002c-0.002,0-0.004,0-0.007,0.001
		c-0.02,0.003-0.04,0.006-0.06,0.009c-0.001,0-0.004,0.001-0.006,0.001c-0.004,0-0.008,0.001-0.012,0.002
		c-0.002,0-0.003,0-0.006,0.001c-0.004,0-0.008,0.001-0.013,0.002c-0.001,0-0.004,0-0.006,0.001c-0.004,0-0.008,0.001-0.013,0.002
		c-0.001,0-0.003,0-0.005,0.001c-0.004,0-0.009,0.001-0.014,0.002c0,0-0.001,0-0.002,0c-0.016,0.002-0.032,0.005-0.047,0.007
		c-0.001,0-0.003,0-0.003,0c-0.004,0.001-0.009,0.001-0.013,0.002c-0.002,0-0.004,0-0.006,0.001c-0.004,0-0.008,0.001-0.012,0.002
		c-0.002,0-0.004,0-0.006,0.001c-0.004,0-0.008,0.001-0.013,0.002c-0.001,0-0.003,0-0.005,0.001c-0.004,0-0.009,0.001-0.013,0.002
		c-0.001,0-0.001,0-0.003,0c-0.016,0.003-0.033,0.005-0.049,0.008h-0.001c-0.005,0.001-0.009,0.001-0.014,0.002
		c-0.002,0-0.002,0-0.004,0c-0.004,0.001-0.009,0.001-0.013,0.002c-0.001,0-0.003,0-0.005,0.001c-0.004,0-0.009,0.001-0.013,0.002
		c-0.001,0-0.002,0-0.004,0.001c-0.005,0-0.01,0.001-0.015,0.002c0,0-0.001,0-0.002,0c-0.021,0.004-0.043,0.007-0.064,0.011
		c-0.002,0-0.002,0-0.004,0c-0.005,0.001-0.009,0.001-0.014,0.002c-0.001,0-0.003,0-0.005,0.001c-0.004,0-0.008,0.001-0.013,0.002
		c-0.002,0-0.003,0.001-0.006,0.001c-0.004,0-0.008,0.001-0.013,0.002c-0.001,0-0.003,0-0.005,0.001
		c-0.004,0-0.009,0.001-0.013,0.002c-0.001,0-0.001,0-0.002,0c-0.016,0.003-0.032,0.005-0.047,0.008c-0.001,0-0.003,0-0.004,0
		C21.438,0.399,21.434,0.4,21.429,0.4c-0.002,0-0.002,0-0.005,0.001c-0.004,0.001-0.009,0.001-0.013,0.002
		c-0.001,0-0.002,0-0.004,0.001c-0.005,0-0.01,0.001-0.014,0.002c-0.001,0-0.002,0-0.003,0c-0.021,0.004-0.043,0.008-0.065,0.012
		l-0.001,0c-0.005,0.001-0.01,0.001-0.015,0.002c-0.001,0-0.002,0-0.003,0c-0.004,0.001-0.009,0.002-0.014,0.003
		c-0.002,0-0.002,0-0.003,0c-0.005,0.001-0.01,0.002-0.015,0.003H21.27c-0.028,0.005-0.056,0.01-0.083,0.016
		c-0.001,0-0.002,0-0.003,0c-0.005,0.001-0.01,0.002-0.015,0.003c-0.001,0-0.001,0-0.002,0c-0.005,0.001-0.01,0.002-0.016,0.003
		c0,0-0.001,0-0.002,0c-0.033,0.006-0.066,0.013-0.1,0.02c-0.001,0-0.002,0-0.003,0c-0.005,0.001-0.01,0.002-0.015,0.003
		c-0.001,0-0.002,0-0.002,0c-0.005,0.001-0.011,0.002-0.016,0.003c-0.001,0,0,0-0.001,0c-0.028,0.005-0.056,0.011-0.084,0.017
		h-0.001c-0.005,0.001-0.011,0.002-0.016,0.003c0,0-0.001,0-0.002,0c-0.08,0.016-0.159,0.032-0.238,0.048c-0.001,0,0,0,0,0
		c-1.196,0.25-2.362,0.581-3.492,0.988l2.714,7.525C21.843,8.357,23.898,8,26,8V0L26,0L26,0z M9.405,5.984
		C9.174,6.176,8.946,6.372,8.722,6.571c0,0-0.001,0.001-0.001,0.001C8.715,6.577,8.712,6.58,8.708,6.584
		c0,0-0.001,0.001-0.002,0.001C8.702,6.589,8.697,6.593,8.694,6.596C8.693,6.597,8.692,6.598,8.691,6.599
		C8.688,6.602,8.683,6.606,8.679,6.609c0,0.001-0.001,0.001-0.002,0.002C8.672,6.616,8.668,6.619,8.663,6.624c0,0,0,0,0,0
		C8.648,6.637,8.634,6.65,8.62,6.663l0,0C8.614,6.667,8.61,6.671,8.605,6.675c0,0-0.001,0.001-0.002,0.002
		C8.6,6.681,8.595,6.685,8.592,6.688c-0.001,0-0.002,0.002-0.003,0.002C8.585,6.694,8.582,6.697,8.578,6.7
		C8.577,6.702,8.575,6.703,8.574,6.704C8.57,6.707,8.567,6.71,8.563,6.713C8.563,6.714,8.562,6.715,8.56,6.716
		C8.557,6.72,8.553,6.723,8.549,6.726C8.548,6.727,8.547,6.729,8.546,6.729c-0.004,0.003-0.007,0.006-0.011,0.01
		C8.534,6.74,8.533,6.741,8.532,6.742c-0.003,0.003-0.006,0.006-0.01,0.01C8.52,6.752,8.519,6.753,8.518,6.755
		C8.513,6.759,8.509,6.763,8.504,6.768h0C8.499,6.772,8.495,6.775,8.49,6.78C8.489,6.781,8.487,6.782,8.486,6.784
		C8.483,6.786,8.479,6.79,8.476,6.792C8.475,6.794,8.473,6.795,8.471,6.797C8.468,6.8,8.466,6.802,8.463,6.805
		C8.461,6.807,8.459,6.809,8.457,6.81C8.454,6.813,8.452,6.815,8.449,6.818C8.447,6.819,8.445,6.821,8.443,6.823
		C8.441,6.825,8.438,6.828,8.435,6.83C8.433,6.832,8.431,6.834,8.429,6.835C8.426,6.838,8.425,6.84,8.422,6.842
		C8.419,6.844,8.417,6.847,8.415,6.849S8.411,6.853,8.409,6.854C8.406,6.857,8.404,6.859,8.401,6.861
		C8.399,6.863,8.397,6.865,8.395,6.868C8.392,6.87,8.39,6.872,8.388,6.874C8.385,6.876,8.383,6.878,8.38,6.881
		c-0.004,0.003-0.008,0.007-0.011,0.01C8.366,6.894,8.364,6.896,8.361,6.898C8.359,6.9,8.357,6.902,8.355,6.904
		C8.353,6.906,8.35,6.909,8.348,6.911C8.345,6.913,8.343,6.915,8.34,6.917C8.339,6.919,8.336,6.921,8.334,6.923
		C8.332,6.925,8.329,6.928,8.327,6.93C8.325,6.932,8.323,6.934,8.321,6.936C8.318,6.938,8.315,6.94,8.313,6.943
		C8.311,6.945,8.309,6.946,8.308,6.948C8.305,6.95,8.302,6.953,8.299,6.956C8.298,6.957,8.296,6.958,8.294,6.96
		C8.292,6.963,8.289,6.966,8.286,6.968C8.284,6.97,8.283,6.971,8.282,6.972C8.279,6.975,8.275,6.978,8.272,6.981
		C8.271,6.982,8.271,6.982,8.269,6.983C8.254,6.998,8.238,7.013,8.223,7.027C8.222,7.028,8.221,7.029,8.22,7.03
		C8.217,7.033,8.213,7.036,8.21,7.039C8.209,7.04,8.208,7.041,8.207,7.042C8.204,7.045,8.201,7.048,8.197,7.051
		C8.196,7.053,8.195,7.053,8.193,7.055C8.19,7.058,8.187,7.061,8.184,7.063C8.183,7.064,8.182,7.066,8.18,7.067
		C8.177,7.07,8.174,7.073,8.17,7.076C8.169,7.077,8.168,7.078,8.167,7.08C8.164,7.083,8.161,7.085,8.158,7.088
		C8.156,7.089,8.155,7.091,8.154,7.092c-0.003,0.003-0.006,0.006-0.01,0.009C8.143,7.102,8.143,7.103,8.142,7.104
		c-0.016,0.015-0.032,0.03-0.048,0.045l0,0.001C8.089,7.153,8.085,7.157,8.081,7.161c0,0,0,0-0.001,0.001
		C8.076,7.166,8.072,7.169,8.068,7.173c0,0.001-0.001,0.001-0.001,0.001C8.063,7.178,8.06,7.182,8.056,7.185
		c0,0-0.001,0.001-0.002,0.002C8.05,7.19,8.046,7.194,8.043,7.197c0,0-0.002,0.001-0.002,0.002C8.037,7.203,8.033,7.207,8.029,7.21
		l0,0C8,7.238,7.971,7.267,7.942,7.294c-0.001,0-0.001,0.001-0.002,0.001C7.937,7.3,7.933,7.303,7.929,7.307L7.928,7.308
		C7.924,7.312,7.92,7.315,7.916,7.319L7.915,7.32c-0.794,0.769-1.54,1.588-2.23,2.452c0,0.001,0,0,0,0
		c-0.003,0.004-0.007,0.009-0.01,0.013c0,0,0,0-0.001,0.001C5.644,9.824,5.615,9.86,5.586,9.896L5.585,9.897
		C5.582,9.901,5.579,9.906,5.575,9.91c0,0,0,0,0,0c-0.003,0.004-0.007,0.009-0.01,0.013c0,0,0,0-0.001,0.001
		c-0.025,0.032-0.05,0.063-0.075,0.096l-0.001,0.001c-0.003,0.004-0.006,0.008-0.009,0.012c0,0.001-0.001,0.001-0.001,0.002
		c-0.003,0.004-0.006,0.008-0.01,0.012c0,0-0.001,0.001-0.001,0.002c-0.003,0.004-0.006,0.008-0.009,0.012
		c0,0-0.001,0.001-0.001,0.002c-0.003,0.004-0.007,0.008-0.01,0.012l-0.001,0.001c-0.003,0.004-0.006,0.009-0.01,0.013l-0.001,0.001
		c-0.021,0.027-0.042,0.054-0.063,0.082c0,0-0.001,0.001-0.001,0.002c-0.003,0.004-0.006,0.008-0.009,0.012
		c0,0-0.001,0.001-0.001,0.001c-0.003,0.004-0.006,0.008-0.009,0.013c0,0-0.001,0.001-0.001,0.002
		c-0.003,0.004-0.006,0.008-0.009,0.012c0,0-0.001,0.001-0.001,0.002c-0.003,0.004-0.006,0.008-0.009,0.012
		c0,0-0.001,0.001-0.002,0.002c-0.017,0.023-0.035,0.045-0.052,0.068l0,0c-0.003,0.004-0.006,0.008-0.01,0.013
		c0,0-0.001,0.001-0.001,0.002c-0.003,0.004-0.006,0.008-0.009,0.012c0,0-0.002,0.002-0.002,0.003
		c-0.002,0.004-0.005,0.007-0.008,0.011c-0.001,0.001-0.002,0.003-0.003,0.004c-0.003,0.003-0.005,0.007-0.008,0.01
		c-0.001,0.001-0.002,0.002-0.003,0.003c-0.002,0.004-0.005,0.007-0.008,0.011c0,0-0.001,0.002-0.002,0.003
		c-0.017,0.022-0.034,0.044-0.05,0.067c0,0-0.001,0.001-0.001,0.001c-0.002,0.003-0.005,0.007-0.008,0.011
		c-0.001,0.001-0.002,0.003-0.003,0.005c-0.002,0.003-0.005,0.006-0.007,0.01c-0.001,0.002-0.002,0.002-0.003,0.004
		c-0.002,0.003-0.005,0.007-0.007,0.01c-0.001,0.001-0.003,0.004-0.004,0.005c-0.002,0.003-0.005,0.006-0.007,0.009
		c-0.001,0.002-0.002,0.003-0.004,0.005c-0.002,0.003-0.005,0.006-0.007,0.009c-0.001,0.001-0.002,0.004-0.003,0.005
		c-0.002,0.003-0.005,0.007-0.008,0.01c0,0.001-0.001,0.002-0.002,0.003c-0.009,0.012-0.018,0.024-0.027,0.036
		c-0.001,0.001-0.002,0.003-0.003,0.004c-0.002,0.003-0.005,0.007-0.007,0.01c-0.001,0.002-0.002,0.003-0.003,0.005
		c-0.002,0.003-0.004,0.006-0.007,0.009c-0.001,0.002-0.003,0.004-0.004,0.006c-0.002,0.003-0.004,0.006-0.006,0.009
		c-0.001,0.002-0.003,0.004-0.004,0.006c-0.002,0.003-0.004,0.006-0.006,0.008c-0.002,0.003-0.003,0.004-0.005,0.007
		s-0.004,0.005-0.006,0.008c-0.001,0.002-0.003,0.004-0.004,0.006c-0.002,0.003-0.004,0.005-0.006,0.008s-0.003,0.004-0.005,0.007
		c-0.002,0.002-0.004,0.005-0.006,0.008C5,10.668,4.998,10.67,4.996,10.673c-0.001,0.002-0.003,0.004-0.005,0.007
		c-0.002,0.003-0.004,0.005-0.006,0.008c-0.004,0.005-0.007,0.01-0.011,0.015c-0.001,0.002-0.003,0.004-0.004,0.006
		c-0.002,0.003-0.004,0.005-0.006,0.008c-0.002,0.002-0.003,0.004-0.005,0.007c-0.001,0.002-0.003,0.005-0.005,0.007
		c-0.002,0.002-0.004,0.005-0.006,0.008c-0.001,0.002-0.003,0.004-0.005,0.007c-0.002,0.002-0.004,0.005-0.006,0.008
		c-0.001,0.002-0.003,0.005-0.005,0.007c-0.001,0.003-0.004,0.005-0.005,0.008c-0.002,0.002-0.003,0.004-0.005,0.007
		s-0.004,0.006-0.006,0.008c-0.001,0.002-0.003,0.004-0.004,0.006c-0.002,0.003-0.004,0.007-0.007,0.01
		c-0.001,0.002-0.003,0.004-0.004,0.005c-0.002,0.003-0.005,0.007-0.007,0.01c-0.001,0.002-0.002,0.003-0.004,0.005
		c-0.003,0.005-0.007,0.01-0.011,0.015c0,0-0.001,0.001-0.001,0.002c-0.003,0.004-0.006,0.009-0.009,0.014
		c-0.001,0.001-0.002,0.002-0.003,0.004c-0.002,0.003-0.006,0.008-0.008,0.011c-0.001,0.001-0.002,0.003-0.003,0.005
		c-0.002,0.003-0.005,0.007-0.007,0.01c-0.001,0.002-0.002,0.003-0.004,0.005c-0.002,0.003-0.005,0.007-0.007,0.01
		c-0.001,0.001-0.002,0.003-0.003,0.004c-0.002,0.004-0.005,0.007-0.008,0.011c-0.001,0.001-0.002,0.003-0.003,0.005
		c-0.002,0.003-0.005,0.007-0.007,0.01c-0.001,0.001-0.002,0.003-0.003,0.005c-0.002,0.003-0.005,0.007-0.007,0.011
		c-0.001,0.001-0.002,0.003-0.004,0.005c-0.003,0.004-0.006,0.009-0.009,0.013c0,0-0.001,0.001-0.001,0.001
		c-0.008,0.011-0.015,0.021-0.022,0.032c0,0-0.001,0.001-0.001,0.001c-0.003,0.004-0.007,0.01-0.01,0.014
		c-0.001,0.001-0.002,0.002-0.003,0.004c-0.002,0.004-0.005,0.008-0.008,0.012C4.74,11.029,4.74,11.03,4.739,11.031
		c-0.003,0.004-0.005,0.007-0.008,0.011c-0.001,0.001-0.002,0.003-0.003,0.005c-0.003,0.004-0.005,0.006-0.008,0.011
		c-0.001,0.001-0.002,0.003-0.003,0.005c-0.002,0.003-0.005,0.007-0.007,0.01c-0.001,0.002-0.002,0.003-0.003,0.005
		c-0.003,0.004-0.006,0.009-0.009,0.013c0,0.001-0.001,0.002-0.002,0.002c-0.015,0.021-0.029,0.042-0.044,0.063
		c0,0,0,0.001-0.001,0.001c-0.003,0.005-0.006,0.009-0.01,0.014c0,0.001-0.001,0.002-0.002,0.003
		c-0.003,0.004-0.006,0.009-0.009,0.013c-0.001,0.001-0.001,0.002-0.002,0.003c-0.002,0.004-0.005,0.008-0.008,0.012
		c-0.001,0.001-0.002,0.003-0.003,0.004c-0.002,0.004-0.006,0.009-0.008,0.013c-0.001,0.001-0.001,0.002-0.002,0.002
		c-0.003,0.005-0.006,0.009-0.01,0.014c0,0-0.001,0.001-0.001,0.001c-0.015,0.021-0.029,0.042-0.044,0.064c0,0,0,0.001-0.001,0.001
		c-0.003,0.005-0.006,0.009-0.01,0.015c0,0-0.001,0.001-0.001,0.002c-0.002,0.004-0.006,0.01-0.009,0.014
		c0,0.001-0.001,0.002-0.002,0.003c-0.003,0.004-0.006,0.009-0.009,0.014c0,0-0.001,0.001-0.001,0.001
		c-0.004,0.005-0.007,0.01-0.011,0.015v0c-0.019,0.027-0.037,0.054-0.055,0.081v0c-0.003,0.005-0.006,0.01-0.01,0.015
		c0,0-0.001,0.001-0.001,0.002c-0.003,0.005-0.006,0.009-0.01,0.014c0,0,0,0.001,0,0.001c-0.004,0.005-0.006,0.009-0.01,0.015
		c0,0,0,0.001-0.001,0.001c-0.003,0.005-0.006,0.01-0.01,0.015c0,0,0,0,0,0.001c-0.283,0.42-0.553,0.85-0.812,1.287l6.889,4.068
		c1.062-1.799,2.418-3.39,4.03-4.728L9.405,5.984L9.405,5.984z M0.446,21.182c-0.048,0.258-0.093,0.518-0.134,0.778c0,0,0,0,0,0
		c-0.001,0.007-0.002,0.013-0.003,0.02c0,0,0,0,0,0.001c-0.001,0.007-0.001,0.012-0.002,0.019c0,0.001,0,0.001,0,0.002
		c-0.001,0.006-0.002,0.012-0.003,0.018c0,0,0,0.001,0,0.002c-0.001,0.006-0.002,0.011-0.003,0.017c0,0.001,0,0.002,0,0.003
		c-0.006,0.041-0.012,0.079-0.018,0.119c0,0.001,0,0.002,0,0.003c0,0.005-0.001,0.011-0.002,0.016c0,0.002,0,0.003-0.001,0.005
		c0,0.005-0.001,0.009-0.002,0.014c0,0.002,0,0.004-0.001,0.006c-0.001,0.005-0.001,0.009-0.002,0.014c0,0.002,0,0.004-0.001,0.006
		c0,0.005-0.001,0.009-0.002,0.014c0,0.002,0,0.004-0.001,0.006c0,0.004-0.001,0.009-0.002,0.014c0,0.002,0,0.004-0.001,0.006
		c0,0.004-0.001,0.009-0.002,0.013c0,0.002,0,0.004,0,0.006c-0.001,0.004-0.001,0.01-0.002,0.014c0,0.002,0,0.003,0,0.005
		c-0.001,0.006-0.001,0.01-0.002,0.016c0,0.001,0,0.002,0,0.003c-0.001,0.007-0.002,0.013-0.003,0.02c0,0,0,0.001,0,0.001
		c-0.001,0.006-0.001,0.012-0.002,0.018c0,0.002,0,0.005-0.001,0.007c0,0.004-0.001,0.008-0.002,0.013c0,0.002,0,0.005-0.001,0.008
		c0,0.003-0.001,0.008-0.001,0.011c0,0.003-0.001,0.006-0.001,0.009c0,0.004,0,0.006-0.001,0.01c0,0.003,0,0.006-0.001,0.009
		c0,0.003-0.001,0.007-0.001,0.01s-0.001,0.006-0.001,0.01s0,0.006-0.001,0.009s-0.001,0.007-0.001,0.01
		c0,0.002-0.001,0.006-0.001,0.009c0,0.003-0.001,0.007-0.001,0.011c0,0.002,0,0.006-0.001,0.009c0,0.003-0.001,0.007-0.001,0.011
		c0,0.002-0.001,0.006-0.001,0.008c0,0.004-0.001,0.007-0.001,0.011c0,0.002-0.001,0.004-0.001,0.007
		c0,0.004-0.001,0.008-0.002,0.012c0,0.002,0,0.001,0,0.003C0.226,22.56,0.224,22.57,0.223,22.58c0,0.002,0,0.004-0.001,0.006
		c0,0.004-0.001,0.009-0.002,0.014c0,0.002,0,0.003,0,0.005c0,0.004-0.001,0.009-0.001,0.013c0,0.002,0,0.004-0.001,0.007
		c0,0.004-0.001,0.008-0.002,0.012c0,0.003,0,0.004,0,0.007c0,0.004-0.001,0.008-0.001,0.012c0,0.002-0.001,0.005-0.001,0.007
		c0,0.004-0.001,0.008-0.002,0.013c0,0.001,0,0.004,0,0.006c0,0.004-0.001,0.009-0.002,0.014c0,0.002,0,0.003,0,0.005
		c0,0.004-0.001,0.009-0.002,0.014c0,0.002,0,0.003,0,0.005c0,0.005-0.001,0.01-0.002,0.014c0,0.002,0,0.003,0,0.005
		c0,0.005-0.001,0.01-0.002,0.015c0,0.001,0,0,0,0.001c-0.003,0.024-0.006,0.049-0.009,0.073c0,0.001,0,0,0,0.001
		c0,0.005-0.001,0.011-0.002,0.016c0,0.001,0,0.002,0,0.003c-0.001,0.005-0.001,0.011-0.002,0.016c0,0.002,0,0.002,0,0.003
		c0,0.005-0.001,0.01-0.002,0.015c0,0.001,0,0.003,0,0.004c0,0.005-0.001,0.01-0.001,0.015c0,0.002,0,0.003-0.001,0.004
		c0,0.005-0.001,0.01-0.001,0.015c0,0.001,0,0.004,0,0.004c0,0.005-0.001,0.01-0.002,0.015c0,0.002,0,0.001,0,0.003
		c0,0.005-0.001,0.01-0.001,0.016c0,0.001,0,0.002,0,0.003c-0.004,0.036-0.008,0.073-0.013,0.109v0.001
		c0,0.006-0.001,0.012-0.002,0.017c0,0.001,0,0.001,0,0.002c0,0.005-0.001,0.011-0.002,0.016c0,0.001,0,0.002,0,0.003
		c0,0.005-0.001,0.011-0.001,0.016l0,0.002c0,0.005-0.001,0.011-0.002,0.017c0,0.001,0,0.001,0,0.002
		c0,0.005-0.001,0.011-0.002,0.017v0.001c-0.005,0.05-0.011,0.1-0.016,0.149v0c-0.001,0.006-0.001,0.012-0.002,0.018
		c0,0,0,0,0,0.001c-0.001,0.006-0.001,0.012-0.002,0.018v0.001c-0.001,0.006-0.001,0.012-0.002,0.018c0,0.001,0,0,0,0.001
		c0,0.006-0.001,0.012-0.002,0.018l0,0c-0.005,0.05-0.01,0.1-0.015,0.149c0,0.001,0,0,0,0.001c0,0.005-0.001,0.011-0.001,0.017
		c0,0.001,0,0.002,0,0.003c0,0.005-0.001,0.011-0.001,0.016c0,0.001,0,0.002,0,0.003c0,0.005-0.001,0.011-0.001,0.016
		c0,0.001,0,0.002,0,0.003c0,0.005-0.001,0.011-0.001,0.016v0.002c0,0.006-0.001,0.012-0.002,0.018v0
		c-0.004,0.043-0.007,0.087-0.011,0.131c0,0.001,0,0,0,0.001c0,0.006-0.001,0.011-0.001,0.017c0,0.001,0,0.002,0,0.003
		c0,0.005-0.001,0.01-0.001,0.016c0,0.002,0,0.002,0,0.003c0,0.005-0.001,0.011-0.001,0.016c0,0,0,0.002,0,0.003
		c0,0.005-0.001,0.011-0.001,0.017v0.002c0,0.005-0.001,0.011-0.001,0.017c0,0,0,0.001,0,0.002c-0.003,0.043-0.007,0.086-0.01,0.129
		c0,0.001,0,0,0,0.001c0,0.005-0.001,0.011-0.001,0.017c0,0.001,0,0.002,0,0.003c0,0.005-0.001,0.011-0.001,0.016
		c0,0.001,0,0.002,0,0.003c0,0.005,0,0.01-0.001,0.016c0,0.001,0,0.003,0,0.004c0,0.005,0,0.01-0.001,0.016c0,0.002,0,0.001,0,0.003
		c0,0.005,0,0.011-0.001,0.017c0,0.001,0,0,0,0.001c-0.003,0.043-0.006,0.087-0.009,0.13c0,0,0,0.001,0,0.002
		c0,0.005-0.001,0.011-0.001,0.016c0,0.002,0,0.002,0,0.004c0,0.005,0,0.01-0.001,0.015c0,0.002,0,0.002,0,0.004
		c0,0.005,0,0.01-0.001,0.015c0,0.002,0,0.003,0,0.004c0,0.005-0.001,0.01-0.001,0.016c0,0.001,0,0.001,0,0.003
		c0,0.005,0,0.01-0.001,0.016c0,0.001,0,0.002,0,0.003c-0.002,0.037-0.005,0.073-0.007,0.109l0,0.002c0,0.005,0,0.011,0,0.016
		c0,0.002,0,0.002,0,0.004c0,0.004,0,0.009-0.001,0.014c0,0.001,0,0.004,0,0.006c0,0.004,0,0.009-0.001,0.014
		c0,0.001,0,0.004,0,0.005c0,0.005,0,0.01,0,0.014c0,0.002,0,0.004,0,0.006c0,0.004,0,0.009,0,0.014c0,0.002,0,0.004,0,0.006
		c0,0.004,0,0.009-0.001,0.014c0,0.002,0,0.004,0,0.005c0,0.005,0,0.01-0.001,0.015c0,0.001,0,0.001,0,0.003
		c-0.002,0.03-0.003,0.06-0.005,0.09c0,0.001,0,0,0,0.002c0,0.005,0,0.01-0.001,0.015c0,0.002,0,0.003,0,0.005
		c0,0.004,0,0.009-0.001,0.014c0,0.002,0,0.003,0,0.006c0,0.004,0,0.009-0.001,0.013c0,0.002,0,0.005,0,0.006
		c0,0.004,0,0.009-0.001,0.013c0,0.003,0,0.005,0,0.007c0,0.004,0,0.008-0.001,0.013c0,0.002,0,0.005,0,0.007
		c0,0.004,0,0.008,0,0.012c0,0.001,0,0.006,0,0.007c0,0.004,0,0.009,0,0.013c0,0.002,0,0.003,0,0.006c0,0.004,0,0.009,0,0.014
		c0,0,0,0.003,0,0.004c0,0.017-0.001,0.035-0.002,0.052c0,0.001,0,0.001,0,0.002c0,0.004,0,0.009-0.001,0.014
		c0,0.002,0,0.004,0,0.006c0,0.004,0,0.008,0,0.013c0,0.002,0,0.005,0,0.007c0,0.004,0,0.008,0,0.012c0,0.002,0,0.006,0,0.008
		c0,0.004,0,0.008,0,0.011c0,0.003,0,0.006,0,0.009c0,0.004,0,0.007,0,0.011c0,0.003,0,0.006,0,0.009c0,0.004,0,0.007,0,0.011
		c0,0.003,0,0.005,0,0.008c0,0.004,0,0.008,0,0.012c0,0.002,0,0.005,0,0.008c0,0.004,0,0.008,0,0.012c0,0.002,0,0.005,0,0.008
		c0,0.004,0,0.008,0,0.012c0,0.003,0,0.006,0,0.008c0,0.004,0,0.008,0,0.012c0,0.001,0,0,0,0.001c0,0.01,0,0.02-0.001,0.03
		c0,0.002,0,0.005,0,0.007c0,0.004,0,0.008,0,0.012c0,0.003,0,0.006,0,0.009c0,0.003,0,0.007,0,0.011c0,0.003,0,0.005,0,0.008
		c0,0.004,0,0.007,0,0.011c0,0.002,0,0.006,0,0.009c0,0.003,0,0.007,0,0.011c0,0.002,0,0.006,0,0.009c0,0.003,0,0.007,0,0.01
		c0,0.003,0,0.006,0,0.01s0,0.007,0,0.01c0,0.003,0,0.007,0,0.01c0,0.003,0,0.007,0,0.01s0,0.006,0,0.01c0,0.003,0,0.007,0,0.01
		s0,0.006,0,0.01c0,0.003,0,0.006,0,0.01s0,0.007,0,0.01s0,0.007,0,0.01c0,0.004,0,0.007,0,0.012c0,0.006,0,0.013,0,0.019
		c0,0.002,0,0.006,0,0.008c0,0.004,0,0.007,0,0.011c0,0.002,0,0.006,0,0.009c0,0.003,0,0.006,0,0.01c0,0.004,0,0.007,0,0.01
		c0,0.003,0,0.006,0,0.009c0,0.004,0,0.007,0,0.011c0,0.003,0,0.006,0,0.009s0,0.007,0,0.01c0,0.003,0,0.007,0,0.01
		c0,0.004,0,0.007,0,0.011c0,0.003,0,0.006,0,0.009c0,0.004,0,0.007,0,0.011s0,0.006,0,0.009c0,0.004,0,0.007,0,0.011
		c0,0.003,0,0.006,0,0.009c0,0.003,0,0.007,0,0.011s0,0.006,0,0.009c0,0.003,0,0.008,0,0.012c0,0.003,0,0.005,0,0.008
		c0,0.007,0,0.013,0,0.02c0,0.001,0,0.003,0,0.004c0,0.005,0,0.01,0,0.016c0,0.003,0,0.006,0,0.009c0,0.003,0,0.008,0,0.011
		c0,0.003,0,0.006,0,0.009c0,0.003,0,0.007,0,0.011c0,0.003,0,0.006,0,0.009c0,0.004,0,0.007,0,0.012c0,0.003,0,0.006,0,0.009
		c0,0.003,0,0.008,0,0.011c0,0.003,0,0.006,0,0.009c0,0.003,0,0.007,0,0.011c0,0.003,0,0.006,0,0.01s0,0.007,0,0.011
		c0,0.003,0,0.006,0,0.009c0,0.004,0,0.008,0,0.012c0,0.002,0,0.005,0,0.008c0,0.004,0,0.007,0,0.012c0,0.003,0,0.005,0,0.008
		c0,0.004,0,0.009,0,0.013c0,0.003,0,0.005,0,0.008c0,0.014,0,0.026,0,0.04c0,0.002,0,0.005,0,0.007c0,0.004,0,0.008,0,0.013
		c0,0.003,0,0.006,0,0.008c0,0.004,0,0.008,0,0.012c0,0.003,0,0.006,0,0.009c0,0.004,0,0.007,0,0.012c0,0.003,0,0.006,0,0.009
		c0,0.003,0,0.008,0,0.011c0,0.003,0,0.006,0,0.009c0,0.003,0,0.008,0,0.011c0,0.003,0,0.006,0,0.009c0,0.003,0,0.008,0,0.011
		c0,0.003,0,0.006,0,0.009c0,0.004,0,0.007,0,0.011c0,0.003,0,0.006,0,0.009c0,0.004,0,0.008,0,0.011c0,0.003,0,0.006,0,0.009
		c0,0.004,0,0.009,0,0.013c0,0.002,0,0.005,0,0.007c0,0.007,0,0.013,0,0.02l0,0c0,0.006,0,0.013,0,0.019c0,0.002,0,0.004,0,0.006
		c0,0.004,0,0.009,0,0.013c0,0.002,0,0.004,0,0.007c0,0.004,0,0.009,0,0.014c0,0.001,0,0.003,0,0.005c0,0.006,0,0.013,0,0.019
		c0,0.002,0,0.003,0,0.005c0,0.004,0,0.01,0,0.014c0,0.002,0,0.004,0,0.006c0,0.004,0,0.009,0,0.013c0,0.002,0,0.004,0,0.006
		c0,0.005,0,0.011,0,0.016c0,0.001,0,0.002,0,0.003c0,0.006,0,0.013,0,0.019c0,0.002,0,0.004,0,0.006c0,0.004,0,0.009,0,0.014
		c0,0.002,0,0.004,0,0.006c0,0.005,0,0.009,0,0.014c0,0.001,0,0.003,0,0.005c0,0.006,0,0.013,0,0.019v0c0,0.006,0,0.013,0,0.019
		c0,0.002,0,0.004,0,0.006c0,0.005,0,0.009,0,0.014c0,0.002,0,0.004,0,0.005c0,0.005,0,0.01,0,0.016c0,0.001,0,0.002,0,0.004
		c0,0.007,0,0.012,0,0.02c0,0.001,0,0.002,0,0.004c0,0.005,0,0.01,0,0.015c0,0.002,0,0.004,0,0.006c0,0.004,0,0.01,0,0.013
		c0,0.002,0,0.004,0,0.006c0,0.005,0,0.011,0,0.017c0,0,0,0.001,0,0.002c0,0.007,0,0.012,0,0.019c0,0.002,0,0.003,0,0.005
		c0,0.005,0,0.009,0,0.015c0,0.002,0,0.004,0,0.006c0,0.005,0,0.009,0,0.015c0,0.001,0,0.003,0,0.005c0,0.012,0,0.026,0,0.039
		c0,0.001,0,0.003,0,0.005c0,0.005,0,0.01,0,0.015c0,0.002,0,0.004,0,0.005c0,0.005,0,0.012,0,0.018c0,0,0,0.001,0,0.001
		c0,0.007,0,0.013,0,0.02c0,0.001,0,0.001,0,0.002c0,0.005,0,0.012,0,0.017c0,0.001,0,0.003,0,0.005c0,0.005,0,0.01,0,0.015
		c0,0.001,0,0.003,0,0.004c0,0.013,0.001,0.026,0.001,0.039c0,0.001,0,0.003,0,0.004c0,0.005,0,0.01,0,0.015
		c0,0.001,0,0.003,0,0.005c0,0.005,0,0.01,0,0.015c0,0.002,0,0.003,0,0.005c0,0.006,0,0.014,0,0.02l0,0c0,0.006,0,0.013,0,0.019
		c0,0.001,0,0.003,0,0.004c0,0.005,0,0.01,0,0.015c0,0.001,0,0.003,0,0.005c0,0.006,0,0.012,0,0.018c0,0,0,0.001,0,0.001
		c0,0.007,0,0.013,0,0.021c0,0,0,0,0,0.001c0,0.006,0,0.012,0,0.019c0,0.001,0,0.002,0,0.003c0,0.005,0,0.012,0,0.017
		c0,0.001,0,0.002,0,0.003c0,0.014,0.001,0.026,0.001,0.04c0,0.001,0,0.001,0,0.002c0,0.005,0,0.012,0,0.017
		c0,0.001,0,0.002,0,0.004c0,0.005,0,0.012,0,0.017c0,0.001,0,0.002,0,0.002c0,0.014,0.001,0.026,0.001,0.04
		c0,0.001,0,0.002,0,0.003c0,0.005,0,0.012,0.001,0.017c0,0.001,0,0.002,0,0.003c0,0.013,0.001,0.027,0.001,0.04
		c0,0.001,0,0.001,0,0.002c0,0.007,0,0.011,0.001,0.018c0,0.001,0,0.002,0,0.003c0,0.006,0,0.013,0,0.019c0,0,0,0.001,0,0.001
		c0.001,0.014,0.001,0.027,0.002,0.041c0,0,0,0.001,0,0.001c0,0.007,0,0.012,0,0.019c0,0.001,0,0.001,0,0.002
		c0,0.021,0.001,0.04,0.002,0.061c0,0.001,0,0.002,0,0.003c0,0.006,0,0.012,0.001,0.018c0,0,0,0.001,0,0.002
		c0.001,0.021,0.002,0.04,0.003,0.061c0,0,0,0.001,0,0.002c0.001,0.027,0.002,0.054,0.004,0.081c0,0,0,0.001,0,0.001
		c0.001,0.021,0.002,0.041,0.003,0.062c0,0,0,0,0,0c0,0.007,0,0.014,0.001,0.021c0,0,0,0,0,0c0.05,0.919,0.147,1.825,0.29,2.716
		l7.899-1.263C8.076,27.932,8,26.965,8,26c0-1.126,0.104-2.251,0.309-3.345L0.446,21.182L0.446,21.182z M10.247,34.718l-6.994,3.883
		c1.016,1.831,2.248,3.527,3.66,5.053c0,0,0,0,0,0c0.031,0.034,0.062,0.066,0.093,0.1c0,0,0,0,0,0.001
		c0.004,0.004,0.008,0.008,0.012,0.013c0,0,0.001,0.001,0.001,0.002c0.004,0.004,0.008,0.008,0.012,0.012
		c0,0,0.001,0.001,0.001,0.001c0.004,0.004,0.008,0.009,0.012,0.013c0,0,0.001,0.001,0.001,0.001
		c0.009,0.01,0.017,0.019,0.026,0.028l0,0c0.013,0.014,0.026,0.028,0.04,0.042c0,0,0,0,0,0c0.004,0.004,0.008,0.009,0.012,0.013
		c0,0.001,0.002,0.002,0.002,0.003c0.003,0.004,0.007,0.007,0.01,0.011c0.001,0.001,0.002,0.002,0.003,0.003
		c0.003,0.003,0.006,0.007,0.009,0.01c0.001,0.001,0.002,0.002,0.004,0.004c0.003,0.003,0.006,0.006,0.009,0.01
		c0.001,0.001,0.003,0.003,0.004,0.004c0.003,0.003,0.006,0.006,0.009,0.009c0.001,0.001,0.003,0.003,0.004,0.005
		c0.003,0.003,0.006,0.006,0.01,0.01c0.001,0.001,0.002,0.002,0.003,0.003c0.009,0.009,0.018,0.018,0.026,0.027v0
		c0.005,0.004,0.008,0.008,0.013,0.013c0.001,0.001,0.002,0.002,0.003,0.003c0.003,0.004,0.006,0.007,0.01,0.011
		c0.001,0.001,0.002,0.002,0.003,0.003c0.003,0.004,0.006,0.006,0.01,0.01c0.001,0.002,0.002,0.003,0.004,0.004
		c0.003,0.003,0.006,0.006,0.009,0.009c0.001,0.002,0.003,0.003,0.005,0.005c0.003,0.003,0.005,0.005,0.008,0.008
		c0.002,0.002,0.003,0.004,0.005,0.006c0.003,0.003,0.005,0.005,0.007,0.008c0.002,0.002,0.004,0.004,0.005,0.005
		c0.003,0.003,0.005,0.005,0.008,0.008c0.001,0.002,0.003,0.003,0.005,0.005c0.003,0.003,0.005,0.006,0.008,0.009
		c0.001,0.001,0.003,0.003,0.005,0.004c0.004,0.005,0.008,0.008,0.012,0.013c0.002,0.002,0.004,0.004,0.006,0.006
		c0.002,0.002,0.004,0.004,0.007,0.007s0.005,0.005,0.007,0.007c0.002,0.002,0.003,0.003,0.005,0.005
		c0.003,0.003,0.005,0.005,0.008,0.008c0.002,0.001,0.003,0.003,0.005,0.005c0.002,0.003,0.005,0.006,0.008,0.008
		c0.001,0.001,0.003,0.003,0.004,0.005c0.003,0.002,0.005,0.005,0.008,0.008c0.002,0.002,0.003,0.003,0.005,0.005
		c0.002,0.002,0.005,0.005,0.008,0.008c0.001,0.001,0.003,0.003,0.004,0.004c0.003,0.003,0.006,0.006,0.009,0.009
		c0.001,0.001,0.002,0.002,0.004,0.004c0.002,0.003,0.005,0.006,0.008,0.009c0.001,0.001,0.001,0.001,0.003,0.002
		c0.011,0.012,0.022,0.023,0.033,0.034c0.001,0,0,0,0.001,0.001c0.004,0.004,0.007,0.007,0.011,0.011
		c0,0.001,0.001,0.001,0.002,0.002c0.003,0.003,0.007,0.007,0.01,0.01C7.5,44.269,7.5,44.269,7.501,44.27
		c0.004,0.003,0.007,0.007,0.01,0.01c0.001,0,0.002,0.002,0.002,0.002c0.003,0.003,0.007,0.007,0.01,0.01
		c0,0,0.002,0.002,0.002,0.002c0.003,0.003,0.007,0.007,0.011,0.011c0,0,0,0,0.001,0.001c0.004,0.004,0.007,0.007,0.011,0.011
		L7.55,44.32c0.033,0.033,0.065,0.065,0.098,0.098c0.001,0.001,0,0,0,0c0.397,0.396,0.808,0.78,1.23,1.149l5.271-6.019
		C12.573,38.169,11.26,36.543,10.247,34.718L10.247,34.718z M19.445,42.771l-2.915,7.45c1.595,0.624,3.267,1.095,4.997,1.395h0.001
		c0.005,0.001,0.011,0.002,0.017,0.003l0.001,0c0.034,0.006,0.068,0.012,0.103,0.018c0.001,0,0.001,0,0.002,0
		c0.005,0.001,0.011,0.002,0.016,0.003c0.001,0,0.001,0,0.002,0c0.005,0.001,0.011,0.002,0.016,0.003c0.001,0,0,0,0,0
		c0.023,0.004,0.046,0.008,0.069,0.011l0,0c0.005,0,0.01,0.001,0.015,0.002c0.002,0,0.002,0,0.003,0
		c0.005,0,0.009,0.001,0.014,0.002c0.002,0,0.002,0,0.004,0.001c0.005,0,0.009,0.001,0.014,0.002c0.001,0,0.002,0,0.003,0.001
		c0.005,0,0.01,0.001,0.015,0.002c0,0,0.002,0,0.003,0c0.021,0.003,0.042,0.007,0.063,0.01c0.002,0,0.003,0,0.005,0.001
		c0.004,0,0.008,0.001,0.012,0.002c0.003,0,0.003,0,0.006,0.001c0.004,0,0.008,0.001,0.013,0.002c0.002,0,0.003,0,0.006,0.001
		c0.004,0,0.009,0.001,0.013,0.002c0.002,0,0.003,0,0.005,0.001c0.021,0.003,0.042,0.006,0.063,0.01c0.001,0,0.003,0,0.004,0
		c0.004,0,0.008,0.001,0.013,0.002c0.002,0,0.004,0,0.006,0.001c0.004,0,0.008,0.001,0.013,0.002c0.002,0,0.004,0,0.006,0.001
		c0.004,0,0.008,0.001,0.012,0.001c0.002,0,0.004,0.001,0.006,0.001c0.004,0.001,0.008,0.001,0.012,0.002
		c0.002,0,0.003,0,0.005,0.001c0.015,0.002,0.03,0.004,0.045,0.007c0.001,0,0.002,0,0.003,0c0.004,0,0.008,0.001,0.012,0.001
		c0.001,0,0.005,0.001,0.006,0.001c0.004,0.001,0.007,0.001,0.011,0.002c0.002,0,0.005,0,0.008,0.001
		c0.004,0,0.008,0.001,0.011,0.002c0.002,0,0.004,0,0.007,0.001c0.004,0,0.008,0.001,0.012,0.001c0.001,0,0.005,0.001,0.006,0.001
		c0.004,0,0.008,0.001,0.012,0.002c0.001,0,0.004,0,0.006,0.001c0.008,0.001,0.016,0.002,0.023,0.003c0.002,0,0.005,0,0.006,0
		c0.004,0,0.007,0.001,0.011,0.002s0.005,0,0.008,0.001s0.007,0.001,0.01,0.001c0.003,0,0.006,0.001,0.009,0.001
		c0.003,0,0.006,0,0.01,0.001s0.006,0.001,0.009,0.001s0.006,0.001,0.01,0.001c0.003,0,0.006,0.001,0.009,0.001
		c0.003,0,0.007,0,0.01,0.001s0.005,0.001,0.008,0.001c0.004,0,0.007,0.001,0.011,0.001c0.002,0,0.005,0,0.007,0.001
		c0.007,0.001,0.014,0.002,0.021,0.003c0.002,0,0.006,0.001,0.008,0.001c0.003,0,0.007,0.001,0.01,0.001
		c0.003,0,0.006,0.001,0.01,0.001c0.003,0,0.006,0,0.009,0.001c0.003,0,0.007,0.001,0.01,0.001c0.003,0,0.006,0.001,0.009,0.001
		c0.003,0,0.007,0.001,0.011,0.001c0.003,0,0.005,0,0.008,0.001c0.003,0,0.007,0.001,0.01,0.001s0.006,0,0.009,0.001
		c0.004,0,0.009,0.001,0.013,0.002c0.002,0,0.004,0,0.006,0c0.006,0.001,0.013,0.002,0.019,0.002c0.002,0,0.005,0.001,0.007,0.001
		c0.004,0.001,0.008,0.001,0.013,0.002c0.002,0,0.004,0,0.007,0.001c0.004,0,0.008,0.001,0.012,0.001c0.002,0,0.005,0,0.007,0.001
		c0.003,0,0.009,0.001,0.012,0.001c0.002,0,0.004,0,0.007,0.001c0.004,0,0.008,0.001,0.012,0.001c0.002,0,0.005,0.001,0.008,0.001
		c0.004,0.001,0.008,0.001,0.012,0.002c0.002,0,0.004,0,0.006,0c0.007,0.001,0.012,0.002,0.019,0.002c0.001,0,0.002,0,0.004,0
		c0.005,0.001,0.01,0.001,0.015,0.002c0.002,0,0.005,0.001,0.007,0.001c0.004,0,0.008,0.001,0.012,0.001
		c0.002,0,0.005,0.001,0.008,0.001c0.004,0.001,0.008,0.001,0.012,0.002c0.002,0,0.005,0,0.007,0c0.004,0,0.008,0.001,0.013,0.002
		c0.002,0,0.004,0,0.006,0c0.005,0.001,0.01,0.001,0.015,0.002c0.001,0,0.003,0,0.004,0c0.014,0.002,0.026,0.003,0.039,0.005
		c0.001,0,0.002,0,0.003,0c0.005,0,0.011,0.001,0.016,0.002c0.002,0,0.003,0,0.005,0c0.004,0,0.01,0.001,0.014,0.002
		c0.002,0,0.004,0,0.006,0c0.004,0,0.009,0.001,0.013,0.002c0.002,0,0.004,0,0.006,0c0.005,0,0.009,0.001,0.014,0.002
		c0.001,0,0.003,0,0.005,0c0.006,0,0.012,0.001,0.018,0.002c0,0,0.001,0,0.002,0c0.014,0.001,0.026,0.003,0.04,0.004
		c0.001,0,0.002,0,0.003,0c0.005,0,0.011,0.001,0.016,0.002c0.001,0,0.003,0,0.004,0c0.005,0,0.01,0.001,0.016,0.002
		c0.001,0,0.002,0,0.004,0c0.005,0,0.011,0.001,0.017,0.001c0.001,0,0.002,0,0.003,0c0.007,0.001,0.011,0.001,0.018,0.002
		c0,0,0.001,0,0.001,0c0.021,0.002,0.04,0.004,0.06,0.007c0.001,0,0.002,0,0.003,0c0.005,0.001,0.012,0.001,0.017,0.002
		c0.001,0,0.002,0,0.003,0c0.005,0,0.011,0.001,0.017,0.002c0.001,0,0.002,0,0.003,0c0.005,0,0.012,0.001,0.017,0.001
		c0.001,0,0.002,0,0.002,0c0.021,0.002,0.04,0.004,0.061,0.006c0,0,0,0,0,0c0.007,0,0.012,0.001,0.019,0.002
		c0.001,0,0.002,0,0.003,0c0.005,0,0.012,0.001,0.017,0.002c0.001,0,0.002,0,0.004,0c0.005,0,0.011,0.001,0.017,0.001
		c0.001,0,0.002,0,0.003,0c0.027,0.003,0.053,0.005,0.08,0.008c0.001,0,0.002,0,0.003,0c0.005,0,0.012,0.001,0.017,0.001
		c0,0,0.002,0,0.003,0c0.005,0,0.012,0.001,0.017,0.001c0.001,0,0.002,0,0.003,0c0.006,0,0.013,0.001,0.019,0.002h0
		c0.027,0.002,0.054,0.005,0.082,0.008c0,0,0,0,0.001,0c0.007,0.001,0.012,0.001,0.019,0.002c0,0,0.001,0,0.001,0
		c0.041,0.004,0.082,0.008,0.123,0.012l0,0c0.555,0.05,1.116,0.083,1.68,0.098l0.208-7.998
		C23.421,43.939,21.378,43.528,19.445,42.771L19.445,42.771z M37.113,40.162c-1.646,1.293-3.481,2.281-5.455,2.934l2.512,7.595
		c0.547-0.181,1.085-0.379,1.615-0.595c0.001,0,0,0,0,0c0.005-0.002,0.01-0.004,0.015-0.006c0.001,0,0.001,0,0.001,0
		c0.005-0.002,0.01-0.004,0.015-0.006l0.001,0c0.005-0.002,0.01-0.004,0.016-0.006l0,0c0.032-0.013,0.064-0.026,0.096-0.039
		c0.001,0,0.002-0.001,0.002-0.001c0.005-0.002,0.009-0.004,0.014-0.006c0.001,0,0.002,0,0.003-0.001
		c0.004-0.001,0.009-0.003,0.013-0.005c0.001-0.001,0.003-0.001,0.005-0.002c0.004-0.002,0.008-0.003,0.012-0.005
		c0.001,0,0.003-0.001,0.004-0.002c0.004-0.001,0.008-0.003,0.012-0.005c0.001,0,0.004-0.001,0.005-0.002
		c0.004-0.001,0.008-0.003,0.012-0.005c0.001,0,0.002-0.001,0.004-0.001c0.015-0.006,0.029-0.012,0.043-0.018
		c0.001,0,0.002-0.001,0.003-0.001c0.004-0.002,0.008-0.003,0.012-0.005c0.002-0.001,0.003-0.001,0.005-0.002
		c0.004-0.001,0.007-0.003,0.011-0.004c0.002-0.001,0.004-0.002,0.007-0.003c0.003-0.001,0.007-0.003,0.01-0.004
		c0.002-0.001,0.004-0.002,0.007-0.003c0.003-0.001,0.007-0.003,0.01-0.004c0.002-0.001,0.005-0.002,0.007-0.003
		c0.003-0.001,0.006-0.003,0.009-0.004c0.002-0.001,0.006-0.003,0.008-0.004c0.003-0.001,0.006-0.002,0.009-0.003
		c0.003-0.001,0.007-0.003,0.01-0.004c0.002-0.001,0.005-0.002,0.007-0.003c0.003-0.001,0.007-0.003,0.01-0.004
		c0.004-0.001,0.008-0.003,0.012-0.005c0.004-0.002,0.008-0.003,0.012-0.005c0.002-0.001,0.004-0.002,0.006-0.003
		c0.004-0.001,0.007-0.003,0.011-0.004c0.002-0.001,0.004-0.002,0.007-0.003c0.003-0.001,0.006-0.003,0.01-0.004
		c0.002-0.001,0.005-0.002,0.007-0.003c0.004-0.001,0.007-0.002,0.011-0.004c0.002-0.001,0.005-0.002,0.007-0.003
		c0.003-0.001,0.008-0.003,0.011-0.005c0.001,0,0.004-0.001,0.006-0.002c0.004-0.001,0.008-0.003,0.012-0.005
		c0.001,0,0.003-0.001,0.005-0.002c0.004-0.002,0.009-0.004,0.014-0.006c0.001,0,0.002-0.001,0.003-0.001
		c0.006-0.003,0.01-0.005,0.016-0.007c0,0,0.001,0,0.001,0c0.012-0.005,0.023-0.01,0.035-0.016c0.001,0,0.002-0.001,0.003-0.001
		c0.005-0.002,0.009-0.004,0.014-0.006c0.001,0,0.003-0.001,0.004-0.002c0.005-0.002,0.008-0.004,0.013-0.006
		c0.002,0,0.003-0.001,0.005-0.002c0.005-0.002,0.009-0.004,0.014-0.006c0.001,0,0.002-0.001,0.004-0.001
		c0.004-0.002,0.01-0.004,0.014-0.006c0.001,0,0.002-0.001,0.003-0.001c0.006-0.003,0.01-0.004,0.016-0.007c0,0,0.001,0,0.001,0
		c0.024-0.011,0.048-0.021,0.072-0.032h0c0.006-0.003,0.011-0.005,0.017-0.008c0,0,0.001,0,0.001,0
		c0.006-0.003,0.01-0.005,0.017-0.007c0,0,0.001,0,0.001,0c0.006-0.003,0.01-0.005,0.016-0.008c0,0,0.001,0,0.001,0
		c0.036-0.016,0.072-0.032,0.107-0.048c0,0,0,0,0,0c1.464-0.662,2.854-1.455,4.159-2.365l0,0c0.043-0.03,0.085-0.059,0.127-0.089
		c0,0,0,0,0.001,0c0.042-0.03,0.084-0.06,0.126-0.09c0,0,0,0,0.001-0.001c0.005-0.003,0.01-0.007,0.015-0.011c0,0,0,0,0,0
		c0.005-0.003,0.01-0.007,0.016-0.011c0,0,0,0,0,0c0.032-0.022,0.063-0.045,0.095-0.068c0,0,0.001-0.001,0.001-0.001
		c0.005-0.004,0.009-0.007,0.015-0.011c0,0,0,0,0.001,0c0.005-0.004,0.01-0.007,0.015-0.011c0,0,0,0,0-0.001
		c0.005-0.003,0.01-0.007,0.015-0.011l0,0c0.021-0.015,0.042-0.03,0.063-0.046c0,0,0,0,0,0c0.005-0.004,0.009-0.007,0.015-0.011
		c0,0,0.001-0.001,0.002-0.001c0.005-0.003,0.009-0.006,0.014-0.01c0,0,0.001-0.001,0.002-0.001c0.004-0.003,0.009-0.007,0.013-0.01
		c0.001,0,0.001-0.001,0.002-0.002c0.004-0.003,0.01-0.007,0.014-0.01c0,0,0.001-0.001,0.001-0.001
		c0.005-0.003,0.009-0.007,0.014-0.01c0,0,0.001,0,0.001-0.001c0.016-0.012,0.031-0.023,0.046-0.035c0,0,0.001,0,0.001,0
		c0.005-0.003,0.009-0.007,0.014-0.01c0.001-0.001,0.002-0.001,0.003-0.002c0.004-0.003,0.009-0.006,0.013-0.009
		c0,0,0.001-0.001,0.002-0.002c0.004-0.003,0.008-0.006,0.012-0.009c0.001-0.001,0.002-0.002,0.004-0.003
		c0.004-0.003,0.007-0.006,0.011-0.009c0.001-0.001,0.002-0.002,0.004-0.003c0.004-0.003,0.008-0.006,0.012-0.008
		c0.001-0.001,0.002-0.002,0.003-0.003c0.016-0.012,0.03-0.022,0.046-0.034v0c0.005-0.004,0.01-0.007,0.015-0.011
		c0-0.001,0.001-0.001,0.002-0.002c0.004-0.003,0.008-0.006,0.012-0.009c0.001-0.001,0.002-0.002,0.004-0.003
		c0.004-0.003,0.007-0.005,0.011-0.008c0.001-0.001,0.002-0.002,0.004-0.003c0.004-0.003,0.007-0.005,0.011-0.008
		c0.001-0.001,0.002-0.002,0.004-0.003c0.004-0.003,0.007-0.005,0.011-0.008c0.001-0.001,0.002-0.002,0.004-0.003
		c0.004-0.003,0.009-0.007,0.013-0.01c0,0,0.001-0.001,0.001-0.001c0.016-0.012,0.03-0.023,0.045-0.035
		c0.001-0.001,0.002-0.002,0.004-0.003c0.004-0.003,0.007-0.006,0.011-0.009c0.001-0.001,0.003-0.002,0.004-0.003
		c0.004-0.003,0.006-0.005,0.01-0.008c0.001-0.001,0.003-0.002,0.005-0.003c0.004-0.003,0.006-0.005,0.01-0.008
		c0.001-0.001,0.003-0.002,0.005-0.004c0.003-0.002,0.007-0.005,0.01-0.007c0.002-0.001,0.003-0.003,0.005-0.004
		c0.003-0.003,0.007-0.006,0.011-0.009c0.001-0.001,0.002-0.001,0.003-0.002c0.016-0.012,0.03-0.023,0.045-0.035
		c0.001-0.001,0.002-0.001,0.003-0.002c0.004-0.003,0.008-0.006,0.012-0.009c0.001-0.001,0.002-0.002,0.004-0.003
		c0.004-0.003,0.007-0.005,0.011-0.008c0.001-0.001,0.003-0.002,0.004-0.003c0.003-0.003,0.006-0.005,0.01-0.008
		c0.001-0.001,0.003-0.002,0.004-0.003c0.004-0.003,0.007-0.005,0.011-0.008c0.001-0.001,0.003-0.002,0.004-0.003
		c0.004-0.003,0.008-0.006,0.012-0.009c0-0.001,0.002-0.001,0.003-0.002c0.005-0.004,0.008-0.007,0.014-0.011c0,0,0,0,0.001-0.001
		c0.01-0.008,0.02-0.015,0.03-0.023c0,0,0.001-0.001,0.002-0.002c0.004-0.003,0.008-0.006,0.013-0.01
		c0.001-0.001,0.001-0.001,0.002-0.002c0.004-0.003,0.008-0.006,0.012-0.009c0.001-0.001,0.003-0.002,0.004-0.003
		c0.003-0.003,0.007-0.005,0.011-0.008c0.001-0.001,0.003-0.002,0.004-0.003c0.004-0.003,0.007-0.005,0.011-0.008
		c0.001-0.001,0.003-0.002,0.004-0.003c0.001-0.001,0.002-0.002,0.003-0.003L37.113,40.162L37.113,40.162z M43.597,29.813
		c-0.438,2.033-1.222,3.96-2.33,5.729l6.778,4.25c0.75-1.196,1.404-2.457,1.954-3.772L50,36.017
		c0.002-0.005,0.004-0.009,0.006-0.014c0-0.001,0-0.001,0.001-0.002c0.002-0.005,0.004-0.009,0.006-0.014
		c0-0.001,0.001-0.002,0.001-0.003c0.002-0.005,0.004-0.01,0.006-0.014c0-0.001,0-0.001,0.001-0.001
		c0.002-0.005,0.004-0.01,0.006-0.015l0,0c0.008-0.021,0.017-0.042,0.025-0.062c0-0.001,0.001-0.002,0.001-0.003
		c0.002-0.004,0.003-0.008,0.005-0.013c0-0.001,0.001-0.002,0.001-0.004c0.002-0.004,0.003-0.008,0.005-0.012
		c0.001-0.001,0.001-0.004,0.002-0.005c0.001-0.004,0.003-0.008,0.005-0.012c0-0.002,0.001-0.003,0.001-0.004
		c0.002-0.004,0.003-0.008,0.005-0.013c0-0.001,0.001-0.003,0.002-0.005c0.001-0.004,0.003-0.008,0.005-0.012
		c0-0.001,0.001-0.001,0.001-0.003c0.006-0.014,0.011-0.028,0.017-0.042c0-0.001,0.001-0.002,0.002-0.004
		c0.001-0.003,0.003-0.007,0.004-0.011c0-0.002,0.002-0.005,0.002-0.006c0.001-0.003,0.003-0.007,0.004-0.01
		c0.001-0.002,0.002-0.005,0.003-0.007c0.001-0.003,0.003-0.006,0.004-0.01c0.001-0.002,0.002-0.004,0.002-0.007
		c0.001-0.003,0.003-0.007,0.004-0.01c0.001-0.002,0.002-0.005,0.002-0.007c0.001-0.003,0.003-0.007,0.004-0.011
		c0.001-0.001,0.001-0.003,0.002-0.005c0.001-0.004,0.003-0.008,0.004-0.012c0.001-0.001,0.001-0.003,0.002-0.004
		c0.003-0.008,0.006-0.016,0.01-0.024c0-0.001,0.001-0.003,0.002-0.005c0.001-0.003,0.002-0.006,0.004-0.01
		c0.001-0.002,0.002-0.004,0.003-0.007c0.001-0.003,0.002-0.006,0.004-0.01c0.001-0.003,0.001-0.005,0.003-0.008
		c0.001-0.003,0.002-0.006,0.003-0.009c0.001-0.003,0.002-0.005,0.003-0.008c0.001-0.003,0.002-0.006,0.003-0.009
		c0.001-0.003,0.002-0.006,0.003-0.009c0.001-0.003,0.002-0.006,0.004-0.009c0-0.002,0.002-0.005,0.003-0.008
		c0.001-0.003,0.002-0.006,0.004-0.01c0.001-0.003,0.002-0.005,0.003-0.008c0.001-0.003,0.002-0.006,0.004-0.009
		c0.001-0.003,0.003-0.008,0.004-0.011c0.001-0.003,0.003-0.007,0.004-0.011s0.003-0.008,0.005-0.012
		c0.001-0.002,0.002-0.005,0.003-0.007c0.001-0.003,0.003-0.007,0.004-0.01c0.001-0.002,0.002-0.005,0.003-0.008
		c0.001-0.003,0.002-0.007,0.003-0.01c0.001-0.002,0.002-0.005,0.003-0.008c0.001-0.003,0.003-0.007,0.004-0.01
		c0.001-0.002,0.002-0.005,0.003-0.008c0.001-0.003,0.002-0.007,0.003-0.01c0.001-0.002,0.002-0.005,0.003-0.008
		c0.001-0.003,0.003-0.007,0.004-0.01s0.002-0.005,0.003-0.008c0.001-0.004,0.003-0.008,0.004-0.012
		c0-0.002,0.001-0.003,0.002-0.005c0.002-0.006,0.004-0.012,0.007-0.018c0-0.001,0-0.001,0-0.002
		c0.002-0.005,0.004-0.011,0.006-0.016c0-0.001,0.001-0.003,0.001-0.004c0.002-0.004,0.003-0.008,0.005-0.013
		c0-0.002,0.001-0.004,0.002-0.006c0.001-0.004,0.003-0.008,0.005-0.012c0-0.002,0.001-0.003,0.002-0.005
		c0.002-0.005,0.003-0.008,0.005-0.012c0-0.002,0.001-0.004,0.002-0.006c0.002-0.004,0.003-0.008,0.005-0.012
		c0-0.002,0.001-0.004,0.002-0.006c0.001-0.004,0.003-0.008,0.004-0.012c0-0.002,0.001-0.003,0.002-0.005
		c0.002-0.005,0.004-0.012,0.006-0.016c0,0,0-0.001,0-0.001c0.002-0.006,0.004-0.012,0.007-0.018c0,0,0-0.001,0.001-0.002
		c0.002-0.005,0.004-0.011,0.006-0.016c0-0.001,0.001-0.003,0.001-0.004c0.002-0.005,0.003-0.009,0.005-0.014
		c0-0.002,0.001-0.004,0.002-0.005c0.001-0.004,0.003-0.008,0.004-0.012c0.001-0.002,0.001-0.004,0.002-0.006
		c0.001-0.005,0.002-0.007,0.004-0.012c0-0.002,0.001-0.004,0.002-0.006c0.001-0.004,0.003-0.009,0.004-0.013
		c0-0.001,0.001-0.003,0.002-0.005c0.001-0.004,0.003-0.01,0.005-0.014c0-0.001,0.001-0.003,0.002-0.004
		c0.004-0.013,0.009-0.024,0.013-0.036c0,0,0-0.001,0-0.001c0.002-0.005,0.004-0.011,0.006-0.017c0-0.001,0.001-0.002,0.001-0.003
		c0.002-0.005,0.004-0.01,0.005-0.015c0.001-0.002,0.001-0.003,0.002-0.005c0.002-0.004,0.003-0.008,0.005-0.013
		c0-0.002,0.001-0.003,0.002-0.005c0.001-0.005,0.003-0.009,0.005-0.013c0-0.001,0.001-0.003,0.001-0.005
		c0.002-0.005,0.003-0.009,0.005-0.013c0.001-0.002,0.001-0.003,0.002-0.005c0.001-0.003,0.003-0.009,0.005-0.013
		c0-0.001,0.001-0.003,0.002-0.004c0.004-0.013,0.008-0.024,0.013-0.037v0c0.002-0.006,0.004-0.011,0.006-0.017
		c0-0.001,0.001-0.002,0.001-0.004c0.001-0.005,0.003-0.009,0.005-0.014c0-0.001,0.001-0.003,0.002-0.005
		c0.001-0.005,0.003-0.008,0.005-0.013c0-0.001,0.001-0.003,0.001-0.004c0.002-0.005,0.003-0.009,0.005-0.014
		c0-0.001,0.001-0.003,0.001-0.004c0.001-0.005,0.003-0.011,0.005-0.015c0-0.001,0-0.002,0.001-0.003
		c0.009-0.025,0.017-0.049,0.026-0.074c0,0,0-0.001,0-0.002c0.002-0.004,0.004-0.011,0.006-0.016c0-0.001,0-0.002,0.001-0.004
		c0.002-0.004,0.004-0.01,0.005-0.015c0-0.001,0.001-0.002,0.001-0.003c0.001-0.004,0.003-0.011,0.005-0.015
		c0-0.001,0-0.002,0.001-0.003c0.002-0.006,0.003-0.011,0.006-0.017c0,0,0-0.001,0-0.001c0.007-0.019,0.013-0.037,0.02-0.056
		c0,0,0-0.001,0-0.002c0.002-0.006,0.004-0.011,0.006-0.016c0-0.001,0.001-0.002,0.001-0.003c0.002-0.004,0.004-0.01,0.005-0.015
		c0-0.001,0.001-0.003,0.001-0.004c0.001-0.005,0.003-0.01,0.005-0.015c0-0.001,0.001-0.002,0.001-0.004
		c0.001-0.004,0.003-0.01,0.005-0.015c0-0.001,0-0.002,0.001-0.003c0.008-0.025,0.017-0.049,0.025-0.074c0-0.001,0-0.001,0-0.002
		c0.002-0.005,0.004-0.011,0.006-0.016c0-0.001,0-0.002,0.001-0.003c0.001-0.005,0.003-0.01,0.005-0.015
		c0-0.001,0.001-0.003,0.001-0.004c0.002-0.005,0.003-0.009,0.005-0.014c0-0.001,0.001-0.003,0.001-0.004
		c0.001-0.005,0.004-0.011,0.005-0.016c0-0.001,0-0.001,0-0.002c0.002-0.006,0.004-0.012,0.006-0.018l0,0
		c0.006-0.019,0.013-0.037,0.019-0.056c0,0,0-0.001,0-0.002c0.002-0.005,0.004-0.012,0.005-0.016c0-0.001,0.001-0.002,0.001-0.003
		c0.001-0.005,0.003-0.01,0.005-0.015c0-0.001,0.001-0.002,0.001-0.003c0.001-0.005,0.003-0.011,0.005-0.016
		c0-0.001,0-0.001,0.001-0.002c0.002-0.006,0.003-0.011,0.005-0.017c0,0,0-0.001,0.001-0.001c0.008-0.025,0.016-0.049,0.024-0.074
		c0-0.001,0-0.002,0.001-0.003c0.001-0.005,0.003-0.011,0.005-0.016c0-0.001,0-0.002,0.001-0.003
		c0.001-0.004,0.003-0.01,0.005-0.015c0-0.001,0-0.002,0.001-0.003c0.001-0.005,0.003-0.011,0.005-0.015
		c0-0.001,0.001-0.002,0.001-0.003c0.001-0.005,0.003-0.011,0.005-0.016c0-0.001,0-0.002,0.001-0.003
		c0.006-0.019,0.012-0.037,0.018-0.056c0-0.001,0-0.001,0.001-0.003c0.002-0.005,0.003-0.01,0.005-0.016
		c0-0.001,0.001-0.002,0.001-0.003c0.001-0.005,0.003-0.011,0.005-0.016c0-0.001,0-0.002,0.001-0.003
		c0.001-0.005,0.003-0.011,0.005-0.016c0-0.001,0-0.002,0.001-0.003c0.001-0.005,0.003-0.011,0.005-0.016
		c0-0.001,0.001-0.002,0.001-0.003c0.002-0.005,0.003-0.011,0.005-0.016c0-0.001,0-0.001,0-0.002
		c0.004-0.013,0.008-0.024,0.012-0.037c0,0,0,0,0-0.001c0.002-0.006,0.004-0.011,0.006-0.018c0-0.001,0-0.002,0.001-0.003
		c0.001-0.005,0.003-0.011,0.005-0.015c0-0.001,0-0.003,0.001-0.004c0.001-0.004,0.003-0.01,0.005-0.015
		c0-0.001,0.001-0.003,0.001-0.004c0.002-0.005,0.003-0.009,0.004-0.014c0-0.002,0.001-0.004,0.002-0.005
		c0.001-0.005,0.002-0.009,0.004-0.014c0-0.001,0.001-0.003,0.001-0.005c0.002-0.004,0.003-0.01,0.005-0.015
		c0-0.001,0-0.002,0.001-0.003c0.004-0.013,0.008-0.024,0.012-0.037c0,0,0-0.002,0-0.002c0.002-0.006,0.003-0.01,0.005-0.016
		c0-0.001,0-0.002,0.001-0.003c0.001-0.005,0.003-0.01,0.004-0.015c0-0.001,0.001-0.002,0.001-0.004
		c0.001-0.004,0.003-0.009,0.004-0.014c0-0.001,0.001-0.003,0.001-0.005c0.001-0.005,0.002-0.009,0.004-0.013
		c0.001-0.002,0.001-0.004,0.002-0.006c0.001-0.005,0.003-0.009,0.004-0.014c0-0.001,0-0.003,0.001-0.004
		c0.002-0.006,0.003-0.01,0.005-0.016c0-0.001,0-0.002,0.001-0.003c0.004-0.013,0.007-0.024,0.011-0.037
		c0-0.001,0.001-0.003,0.001-0.004c0.001-0.005,0.002-0.009,0.004-0.014c0-0.001,0.001-0.003,0.001-0.005
		c0.001-0.005,0.003-0.008,0.004-0.013c0-0.002,0.001-0.004,0.001-0.006c0.001-0.004,0.003-0.008,0.004-0.012
		c0-0.002,0.001-0.004,0.002-0.006c0.001-0.004,0.002-0.008,0.003-0.012c0.001-0.002,0.001-0.004,0.002-0.006
		c0.001-0.005,0.002-0.009,0.004-0.014c0-0.001,0.001-0.003,0.001-0.004c0.001-0.005,0.003-0.011,0.005-0.016
		c0-0.001,0-0.002,0.001-0.003c0.003-0.013,0.007-0.024,0.011-0.037c0-0.001,0.001-0.003,0.002-0.005
		c0.001-0.004,0.002-0.008,0.003-0.012c0.001-0.002,0.001-0.005,0.002-0.007c0.001-0.004,0.002-0.007,0.003-0.011
		c0.001-0.002,0.001-0.005,0.002-0.007c0.001-0.003,0.002-0.008,0.003-0.011c0.001-0.002,0.001-0.005,0.002-0.007
		c0.001-0.004,0.002-0.007,0.003-0.011c0.001-0.002,0.001-0.005,0.002-0.007c0.001-0.004,0.002-0.007,0.003-0.012
		c0-0.002,0.001-0.004,0.002-0.006c0.001-0.004,0.002-0.009,0.003-0.013c0.001-0.002,0.001-0.004,0.002-0.006
		c0.002-0.006,0.003-0.012,0.005-0.018c0-0.001,0-0.003,0.001-0.004c0.001-0.004,0.003-0.009,0.004-0.013
		c0.001-0.003,0.002-0.006,0.002-0.009c0.001-0.003,0.002-0.006,0.003-0.01c0.001-0.003,0.001-0.005,0.002-0.008
		c0.001-0.003,0.002-0.006,0.003-0.01c0-0.002,0.001-0.006,0.002-0.009s0.002-0.006,0.003-0.01c0-0.002,0.001-0.006,0.002-0.008
		c0.001-0.003,0.001-0.006,0.002-0.01c0.001-0.003,0.002-0.005,0.003-0.009c0-0.003,0.001-0.006,0.002-0.01
		c0.001-0.003,0.002-0.005,0.002-0.008c0.001-0.003,0.002-0.008,0.003-0.011c0-0.002,0.001-0.004,0.002-0.007
		c0.001-0.005,0.003-0.012,0.005-0.017c0.001-0.004,0.002-0.007,0.003-0.011c0.001-0.002,0.001-0.005,0.002-0.007
		c0.001-0.004,0.002-0.007,0.003-0.011c0-0.001,0.001-0.005,0.002-0.007c0.001-0.003,0.002-0.007,0.003-0.011
		c0-0.002,0.001-0.005,0.002-0.007c0.001-0.004,0.002-0.007,0.003-0.011c0-0.002,0.001-0.005,0.002-0.007
		c0.001-0.003,0.002-0.007,0.003-0.011c0-0.002,0.001-0.005,0.002-0.007c0.001-0.004,0.002-0.008,0.003-0.012
		c0-0.002,0.001-0.003,0.001-0.006c0.001-0.004,0.002-0.008,0.003-0.012c0-0.002,0-0.002,0.001-0.004
		c0.004-0.015,0.008-0.03,0.013-0.044c0-0.001,0-0.003,0.001-0.003c0.001-0.004,0.002-0.009,0.003-0.013
		c0-0.002,0.001-0.004,0.001-0.006c0.001-0.004,0.002-0.008,0.003-0.012c0-0.002,0.001-0.004,0.001-0.006
		c0.001-0.004,0.002-0.008,0.003-0.012c0-0.002,0.001-0.004,0.001-0.006c0.001-0.004,0.002-0.008,0.003-0.012
		c0-0.001,0.001-0.003,0.001-0.004c0.001-0.004,0.002-0.009,0.003-0.014c0-0.001,0-0.001,0.001-0.002
		c0.007-0.027,0.015-0.055,0.022-0.083l0-0.001c0.001-0.005,0.002-0.011,0.004-0.016c0-0.001,0-0.001,0-0.002
		c0.001-0.005,0.003-0.01,0.004-0.015c0-0.001,0-0.001,0-0.002c0.001-0.005,0.003-0.011,0.004-0.016c0-0.001,0,0,0-0.001
		c0.011-0.04,0.021-0.08,0.032-0.12v0c0.001-0.005,0.003-0.011,0.004-0.017l0,0c0.096-0.367,0.185-0.738,0.265-1.111L43.597,29.813
		L43.597,29.813z M49.075,14.007l-7.096,3.695c0.962,1.847,1.588,3.831,1.863,5.896l7.93-1.053
		c-0.001-0.007-0.001-0.012-0.002-0.019c0-0.001,0-0.003,0-0.004c-0.001-0.005-0.001-0.01-0.002-0.015c0-0.002,0-0.003-0.001-0.005
		c0-0.004-0.001-0.01-0.002-0.014c0-0.002,0-0.004,0-0.006c-0.001-0.005-0.001-0.008-0.002-0.014c0-0.002,0-0.004-0.001-0.006
		c0-0.004-0.001-0.008-0.001-0.013c0-0.002-0.001-0.004-0.001-0.006c-0.001-0.005-0.001-0.009-0.002-0.015
		c0-0.001,0-0.003-0.001-0.005c-0.001-0.013-0.003-0.025-0.005-0.039c0,0,0-0.001,0-0.002c-0.001-0.005-0.002-0.012-0.002-0.017
		c0-0.001,0-0.004-0.001-0.005c0-0.004-0.001-0.01-0.002-0.014c0-0.002,0-0.003,0-0.005c-0.001-0.005-0.001-0.009-0.002-0.014
		c0-0.002-0.001-0.004-0.001-0.005c-0.001-0.005-0.001-0.01-0.002-0.015c0-0.001,0-0.003-0.001-0.005
		c0-0.005-0.001-0.01-0.002-0.016c0-0.001,0-0.002,0-0.004c-0.003-0.02-0.006-0.039-0.009-0.059c0-0.001,0-0.001,0-0.002
		c-0.001-0.005-0.002-0.012-0.003-0.017c0-0.001,0-0.003,0-0.005c0-0.005-0.001-0.01-0.002-0.015c0-0.001,0-0.002,0-0.004
		c0-0.005-0.001-0.011-0.002-0.016c0-0.001,0-0.003-0.001-0.004c0-0.005-0.001-0.011-0.002-0.016c0-0.001,0-0.002,0-0.003
		c-0.003-0.021-0.006-0.04-0.009-0.06c0,0,0,0,0,0c-0.001-0.007-0.002-0.012-0.003-0.019c0-0.001,0-0.002,0-0.002
		c0-0.005-0.001-0.012-0.002-0.017c0-0.001,0-0.003,0-0.004c-0.001-0.005-0.002-0.011-0.002-0.016c0-0.001,0-0.002,0-0.003
		c-0.001-0.005-0.002-0.013-0.003-0.018c0,0,0-0.001,0-0.002c-0.004-0.027-0.008-0.053-0.013-0.08c0,0,0-0.001,0-0.001
		c-0.001-0.007-0.002-0.012-0.003-0.019c0,0,0-0.001,0-0.001c-0.001-0.007-0.001-0.011-0.003-0.018c0,0,0-0.001,0-0.002
		c-0.001-0.006-0.002-0.012-0.003-0.019c0,0,0,0,0,0c-0.005-0.034-0.011-0.066-0.016-0.1v0c-0.001-0.007-0.002-0.013-0.003-0.02
		c0,0,0,0,0-0.001c-0.001-0.006-0.002-0.012-0.003-0.019c0,0,0,0,0,0C51.195,18.98,50.313,16.386,49.075,14.007L49.075,14.007z
		 M36.109,2.039l-3.113,7.37c1.918,0.81,3.671,1.942,5.21,3.363l5.427-5.877c-0.407-0.375-0.826-0.738-1.256-1.088l0,0
		c-0.004-0.003-0.009-0.007-0.013-0.011l-0.001,0c-0.036-0.029-0.072-0.058-0.107-0.087c-0.001,0-0.001,0-0.001-0.001
		c-0.004-0.003-0.008-0.007-0.013-0.01c0,0,0,0-0.001-0.001c-0.004-0.003-0.008-0.006-0.012-0.01c-0.001,0-0.001-0.001-0.002-0.001
		c-0.004-0.003-0.008-0.006-0.012-0.01l-0.001-0.001c-0.004-0.003-0.008-0.007-0.013-0.01v0c-0.022-0.018-0.045-0.035-0.067-0.053
		c0,0-0.001,0-0.001-0.001c-0.004-0.003-0.008-0.006-0.012-0.01c0,0-0.001-0.001-0.002-0.001c-0.004-0.003-0.008-0.006-0.012-0.009
		c-0.001,0-0.001-0.001-0.002-0.002c-0.004-0.003-0.007-0.006-0.011-0.009c-0.001,0-0.002-0.001-0.003-0.002
		c-0.004-0.003-0.008-0.006-0.012-0.009c-0.001,0,0,0-0.001-0.001c-0.022-0.018-0.045-0.035-0.067-0.053c0,0,0,0-0.001-0.001
		c-0.004-0.003-0.008-0.006-0.012-0.009c-0.001,0-0.002-0.001-0.003-0.002c-0.003-0.003-0.007-0.006-0.01-0.009
		c-0.001-0.001-0.003-0.002-0.004-0.003c-0.003-0.002-0.006-0.005-0.01-0.008c-0.001-0.001-0.003-0.002-0.004-0.003
		c-0.003-0.002-0.007-0.005-0.01-0.008c-0.002-0.001-0.002-0.002-0.004-0.003c-0.003-0.002-0.007-0.005-0.01-0.008
		c-0.001-0.001-0.002-0.002-0.004-0.003c-0.003-0.003-0.007-0.005-0.011-0.008c-0.001-0.001-0.002-0.001-0.003-0.002
		c-0.017-0.013-0.034-0.026-0.05-0.039c-0.001-0.001-0.001-0.001-0.003-0.002c-0.004-0.003-0.007-0.006-0.011-0.009
		c-0.001-0.001-0.002-0.001-0.003-0.002c-0.004-0.002-0.007-0.005-0.011-0.008c-0.001-0.001-0.002-0.002-0.004-0.003
		c-0.003-0.002-0.007-0.005-0.011-0.008c-0.001-0.001-0.002-0.002-0.003-0.003c-0.004-0.003-0.007-0.005-0.011-0.008
		c-0.001-0.001-0.002-0.002-0.004-0.003c-0.003-0.002-0.007-0.005-0.011-0.008c-0.001,0-0.001-0.001-0.002-0.001
		c-0.022-0.017-0.044-0.033-0.066-0.05c0,0-0.002-0.002-0.003-0.002c-0.003-0.002-0.007-0.005-0.01-0.008
		c-0.001-0.001-0.003-0.002-0.004-0.003c-0.003-0.002-0.006-0.004-0.01-0.007c-0.002-0.001-0.003-0.003-0.005-0.004
		c-0.003-0.002-0.006-0.005-0.009-0.007c-0.002-0.001-0.002-0.002-0.004-0.003c-0.003-0.003-0.007-0.005-0.01-0.008
		c-0.001-0.001-0.003-0.002-0.004-0.003c-0.003-0.002-0.007-0.005-0.01-0.008c-0.002-0.001-0.002-0.001-0.004-0.003
		c-0.004-0.002-0.007-0.005-0.011-0.008c0,0-0.001-0.001-0.001-0.001c-0.013-0.009-0.025-0.019-0.038-0.028
		c-0.001-0.001-0.001-0.001-0.003-0.002c-0.003-0.002-0.007-0.005-0.01-0.007c-0.001-0.001-0.004-0.003-0.005-0.004
		c-0.003-0.002-0.006-0.005-0.009-0.007c-0.002-0.001-0.003-0.002-0.005-0.003c-0.003-0.002-0.007-0.005-0.01-0.007
		c-0.001-0.001-0.003-0.002-0.005-0.003c-0.003-0.002-0.007-0.005-0.01-0.008c-0.002-0.001-0.002-0.002-0.004-0.003
		c-0.003-0.002-0.006-0.004-0.01-0.007c-0.001,0-0.004-0.002-0.005-0.003c-0.003-0.002-0.006-0.005-0.01-0.007
		c-0.002-0.001-0.003-0.002-0.005-0.003c-0.003-0.002-0.006-0.005-0.01-0.007c0,0-0.001-0.001-0.002-0.002
		c-0.007-0.005-0.014-0.011-0.021-0.016c-0.001-0.001-0.003-0.002-0.005-0.003c-0.003-0.002-0.006-0.004-0.009-0.007
		c-0.002-0.001-0.004-0.002-0.006-0.004c-0.003-0.002-0.006-0.004-0.009-0.007c-0.002-0.001-0.004-0.003-0.006-0.004
		c-0.003-0.002-0.006-0.004-0.009-0.007c-0.002-0.001-0.003-0.002-0.005-0.004c-0.003-0.002-0.006-0.004-0.009-0.007
		c-0.002-0.001-0.004-0.003-0.006-0.004c-0.003-0.002-0.006-0.004-0.009-0.006c-0.002-0.001-0.003-0.003-0.005-0.004
		c-0.003-0.002-0.006-0.004-0.009-0.006c-0.001-0.001-0.004-0.003-0.005-0.004c-0.003-0.002-0.006-0.004-0.01-0.007
		c-0.002-0.001-0.003-0.002-0.005-0.003c-0.003-0.002-0.006-0.005-0.01-0.007c0,0-0.001-0.001-0.002-0.001
		c-0.007-0.005-0.014-0.01-0.021-0.016c-0.001-0.001-0.004-0.003-0.005-0.004C41.335,5.001,41.332,5,41.329,4.997
		c-0.002-0.001-0.003-0.002-0.005-0.004c-0.003-0.002-0.006-0.004-0.009-0.007c-0.002-0.001-0.004-0.003-0.006-0.004
		c-0.003-0.002-0.006-0.004-0.009-0.006c-0.002-0.001-0.004-0.003-0.006-0.004c-0.003-0.002-0.006-0.004-0.008-0.006
		c-0.003-0.002-0.005-0.003-0.007-0.005s-0.005-0.004-0.008-0.005c-0.002-0.002-0.005-0.004-0.008-0.006
		c-0.002-0.002-0.004-0.003-0.007-0.005c-0.002-0.002-0.005-0.004-0.008-0.006c-0.002-0.001-0.005-0.003-0.007-0.005
		c-0.003-0.002-0.005-0.004-0.008-0.006c-0.002-0.001-0.004-0.003-0.007-0.005c-0.005-0.004-0.009-0.007-0.014-0.011
		c-0.002-0.001-0.004-0.003-0.007-0.004c-0.002-0.002-0.006-0.004-0.009-0.006c-0.002-0.002-0.005-0.003-0.007-0.005
		c-0.003-0.002-0.005-0.003-0.008-0.005c-0.002-0.002-0.005-0.004-0.008-0.005c-0.002-0.001-0.005-0.004-0.007-0.006
		c-0.002-0.001-0.005-0.003-0.007-0.005c-0.002-0.002-0.005-0.004-0.008-0.006c-0.002-0.001-0.005-0.003-0.007-0.005
		c-0.002-0.002-0.006-0.004-0.008-0.006c-0.002-0.001-0.004-0.003-0.007-0.005c-0.002-0.001-0.005-0.003-0.008-0.005
		s-0.005-0.003-0.007-0.005s-0.006-0.004-0.008-0.006C41.102,4.833,41.1,4.832,41.098,4.83c-0.003-0.002-0.007-0.005-0.011-0.008
		c-0.002-0.001-0.005-0.003-0.007-0.005c-0.003-0.002-0.008-0.006-0.012-0.008c-0.002-0.002-0.005-0.003-0.007-0.005
		S41.056,4.8,41.053,4.798c-0.003-0.002-0.005-0.004-0.008-0.005c-0.003-0.002-0.005-0.004-0.008-0.005
		c-0.002-0.002-0.004-0.003-0.007-0.005c-0.002-0.002-0.006-0.004-0.008-0.006c-0.002-0.001-0.005-0.003-0.007-0.005
		c-0.002-0.002-0.005-0.004-0.008-0.006C41.005,4.764,41.002,4.763,41,4.761s-0.005-0.004-0.008-0.006
		c-0.002-0.001-0.005-0.003-0.007-0.005c-0.003-0.002-0.006-0.004-0.008-0.006s-0.004-0.003-0.007-0.005s-0.006-0.004-0.009-0.006
		c-0.002-0.001-0.004-0.003-0.006-0.004c-0.004-0.003-0.008-0.005-0.012-0.008c-0.003-0.002-0.006-0.004-0.009-0.007
		c-0.003-0.002-0.006-0.004-0.008-0.006c-0.002-0.001-0.004-0.003-0.007-0.005c-0.003-0.002-0.006-0.004-0.009-0.006
		c-0.002-0.001-0.004-0.003-0.006-0.004c-0.003-0.002-0.005-0.004-0.009-0.006c-0.002-0.001-0.004-0.003-0.007-0.005
		c-0.002-0.001-0.006-0.004-0.009-0.006c-0.002-0.001-0.004-0.003-0.007-0.005c-0.002-0.002-0.005-0.003-0.008-0.005
		s-0.005-0.003-0.007-0.005c-0.003-0.002-0.005-0.003-0.009-0.006c-0.002-0.001-0.004-0.003-0.006-0.004
		c-0.003-0.002-0.006-0.004-0.009-0.006c-0.002-0.001-0.004-0.003-0.006-0.004c-0.003-0.002-0.008-0.005-0.011-0.008
		c-0.001-0.001-0.003-0.002-0.004-0.003c-0.005-0.003-0.009-0.007-0.015-0.01c-0.002-0.001-0.004-0.003-0.006-0.004
		c-0.003-0.002-0.007-0.005-0.01-0.007c-0.002-0.001-0.004-0.003-0.006-0.004c-0.003-0.002-0.005-0.004-0.009-0.006
		c-0.002-0.001-0.005-0.003-0.007-0.004c-0.003-0.002-0.005-0.004-0.009-0.006c-0.002-0.002-0.004-0.003-0.007-0.005
		c-0.002-0.002-0.005-0.004-0.008-0.006c-0.002-0.001-0.005-0.003-0.007-0.005c-0.003-0.001-0.005-0.003-0.008-0.005
		c-0.002-0.002-0.005-0.003-0.007-0.005c-0.003-0.001-0.005-0.003-0.008-0.005c-0.002-0.002-0.004-0.003-0.007-0.005
		c-0.003-0.002-0.006-0.004-0.009-0.006c-0.002-0.001-0.003-0.003-0.005-0.004c-0.004-0.003-0.007-0.005-0.011-0.007
		c-0.003-0.002-0.005-0.004-0.008-0.006c-0.004-0.002-0.008-0.005-0.012-0.008c-0.002-0.001-0.004-0.002-0.005-0.003
		c-0.003-0.002-0.006-0.004-0.01-0.007c-0.002-0.001-0.004-0.003-0.007-0.004C40.626,4.5,40.623,4.499,40.62,4.497
		c-0.002-0.001-0.004-0.003-0.007-0.004s-0.006-0.004-0.008-0.006c-0.002-0.001-0.005-0.003-0.007-0.004
		c-0.002-0.002-0.006-0.004-0.009-0.006c-0.002-0.001-0.004-0.003-0.006-0.004c-0.003-0.002-0.006-0.004-0.009-0.006
		c-0.002-0.001-0.004-0.002-0.006-0.004c-0.003-0.002-0.006-0.004-0.01-0.006c-0.002-0.001-0.004-0.003-0.006-0.004
		c-0.002-0.002-0.005-0.004-0.008-0.005c-0.002-0.002-0.005-0.003-0.007-0.005c-0.002-0.001-0.006-0.004-0.009-0.006
		c-0.004-0.002-0.008-0.005-0.012-0.008c-0.002-0.002-0.007-0.005-0.01-0.006c-0.002-0.001-0.004-0.003-0.007-0.005
		c-0.002-0.002-0.006-0.004-0.008-0.005c-0.002-0.002-0.005-0.003-0.007-0.005C40.48,4.402,40.478,4.4,40.475,4.398
		c-0.003-0.001-0.005-0.003-0.008-0.005c-0.003-0.002-0.005-0.004-0.008-0.005c-0.002-0.001-0.004-0.003-0.007-0.004
		c-0.002-0.002-0.006-0.004-0.009-0.006c-0.002-0.001-0.004-0.003-0.007-0.004c-0.003-0.002-0.005-0.003-0.009-0.006
		c-0.002-0.001-0.004-0.003-0.007-0.004c-0.002-0.002-0.005-0.004-0.008-0.006c-0.002-0.001-0.005-0.003-0.007-0.005
		c-0.003-0.002-0.007-0.005-0.011-0.007c-0.001-0.001-0.003-0.002-0.004-0.003c-0.005-0.004-0.01-0.007-0.016-0.011
		c-0.001,0-0.003-0.002-0.004-0.002c-0.003-0.002-0.008-0.005-0.011-0.008c-0.002-0.001-0.004-0.002-0.006-0.004
		c-0.003-0.002-0.006-0.004-0.01-0.006c-0.002-0.001-0.004-0.003-0.006-0.004c-0.003-0.002-0.006-0.004-0.01-0.006
		c-0.002-0.001-0.004-0.003-0.006-0.004c-0.003-0.001-0.007-0.004-0.009-0.006c-0.002-0.001-0.004-0.003-0.007-0.004
		c-0.002-0.002-0.006-0.004-0.009-0.006s-0.004-0.003-0.007-0.004c-0.003-0.002-0.005-0.003-0.009-0.006
		c-0.002-0.001-0.004-0.003-0.007-0.004c-0.003-0.002-0.006-0.004-0.009-0.006c-0.002-0.001-0.004-0.002-0.006-0.004
		c-0.004-0.003-0.009-0.006-0.013-0.009c-0.001,0-0.002-0.001-0.002-0.001c-0.005-0.003-0.01-0.007-0.016-0.01
		c-0.001-0.001-0.003-0.002-0.004-0.002c-0.003-0.002-0.008-0.005-0.012-0.008c-0.002-0.001-0.004-0.002-0.006-0.004
		c-0.003-0.002-0.006-0.004-0.01-0.006c-0.002-0.001-0.004-0.002-0.006-0.004c-0.003-0.002-0.006-0.004-0.009-0.006
		c-0.002-0.001-0.004-0.003-0.007-0.004c-0.002-0.002-0.006-0.004-0.009-0.006c-0.002-0.001-0.004-0.002-0.006-0.004
		c-0.003-0.002-0.006-0.004-0.009-0.006c-0.002-0.001-0.004-0.003-0.006-0.004c-0.003-0.002-0.006-0.004-0.01-0.006
		c-0.002-0.001-0.004-0.002-0.006-0.004c-0.003-0.002-0.008-0.005-0.012-0.007c-0.001-0.001-0.002-0.002-0.004-0.003
		c-0.011-0.007-0.021-0.013-0.031-0.02c-0.002-0.001-0.003-0.002-0.005-0.003c-0.003-0.002-0.008-0.005-0.011-0.007
		c-0.002-0.001-0.003-0.002-0.005-0.004c-0.003-0.002-0.007-0.004-0.01-0.006c-0.002-0.001-0.004-0.002-0.006-0.004
		c-0.003-0.002-0.006-0.004-0.01-0.006c-0.002-0.001-0.004-0.002-0.006-0.004c-0.003-0.002-0.006-0.004-0.009-0.006
		c-0.002-0.001-0.004-0.003-0.007-0.004c-0.003-0.002-0.006-0.004-0.009-0.006C40,4.087,39.998,4.085,39.995,4.084
		c-0.003-0.002-0.007-0.004-0.01-0.006c-0.001-0.001-0.003-0.002-0.005-0.003c-0.003-0.002-0.008-0.005-0.012-0.007
		c-0.001-0.001-0.002-0.002-0.004-0.003c-0.006-0.003-0.01-0.006-0.016-0.01c-0.001-0.001-0.002-0.001-0.004-0.002
		c-0.004-0.002-0.008-0.005-0.012-0.008c-0.001-0.001-0.003-0.002-0.005-0.003c-0.003-0.002-0.007-0.005-0.011-0.007
		c-0.002-0.001-0.004-0.003-0.006-0.004c-0.003-0.002-0.006-0.004-0.01-0.006c-0.002-0.001-0.004-0.002-0.006-0.004
		c-0.003-0.002-0.007-0.004-0.01-0.006c-0.002-0.001-0.004-0.003-0.006-0.004c-0.003-0.001-0.007-0.004-0.01-0.006
		C39.867,4.002,39.865,4.001,39.863,4c-0.003-0.002-0.007-0.004-0.011-0.007c-0.001-0.001-0.003-0.002-0.005-0.003
		c-0.003-0.002-0.007-0.004-0.011-0.006c-0.001-0.001-0.003-0.002-0.005-0.003c-0.005-0.003-0.008-0.005-0.013-0.008
		c-0.001-0.001-0.002-0.001-0.003-0.002c-0.005-0.003-0.01-0.006-0.016-0.01c-0.001-0.001-0.003-0.001-0.004-0.002
		c-0.003-0.002-0.008-0.005-0.012-0.007c-0.002-0.001-0.004-0.003-0.007-0.004c-0.003-0.002-0.006-0.004-0.009-0.006
		c-0.002-0.001-0.005-0.003-0.007-0.004c-0.003-0.002-0.006-0.003-0.008-0.005c-0.003-0.001-0.005-0.003-0.008-0.005
		c-0.003-0.001-0.006-0.003-0.008-0.005c-0.002-0.001-0.005-0.003-0.008-0.004c-0.002-0.002-0.005-0.003-0.008-0.005
		c-0.002-0.002-0.005-0.003-0.008-0.005c-0.003-0.002-0.006-0.004-0.008-0.005S39.7,3.898,39.697,3.896
		c-0.003-0.002-0.006-0.004-0.009-0.006c-0.002-0.001-0.004-0.003-0.007-0.004c-0.004-0.003-0.008-0.005-0.013-0.008
		c-0.001-0.001-0.003-0.001-0.004-0.002c-0.005-0.003-0.009-0.006-0.014-0.009c-0.002-0.001-0.004-0.002-0.006-0.004
		c-0.003-0.002-0.007-0.004-0.01-0.006c-0.002-0.001-0.004-0.003-0.006-0.004c-0.004-0.002-0.006-0.004-0.01-0.006
		c-0.002-0.001-0.005-0.003-0.007-0.004c-0.002-0.002-0.006-0.004-0.008-0.005s-0.005-0.003-0.007-0.005
		c-0.003-0.001-0.006-0.003-0.009-0.005c-0.002-0.002-0.005-0.003-0.007-0.005c-0.003-0.001-0.006-0.003-0.008-0.005
		s-0.005-0.003-0.008-0.005s-0.005-0.003-0.008-0.005c-0.002-0.001-0.005-0.003-0.008-0.005S39.542,3.8,39.539,3.799
		c-0.003-0.001-0.005-0.003-0.008-0.005c-0.004-0.002-0.006-0.004-0.011-0.006c-0.004-0.002-0.008-0.005-0.012-0.007
		c-0.003-0.002-0.005-0.003-0.008-0.005c-0.003-0.002-0.006-0.004-0.009-0.006c-0.002-0.001-0.004-0.002-0.006-0.004
		c-0.003-0.002-0.006-0.003-0.01-0.005c-0.002-0.001-0.004-0.003-0.006-0.004c-0.003-0.001-0.006-0.003-0.009-0.005
		c-0.002-0.001-0.005-0.003-0.007-0.004c-0.003-0.002-0.006-0.004-0.008-0.005c-0.003-0.002-0.005-0.003-0.008-0.004
		c-0.003-0.002-0.006-0.003-0.008-0.005c-0.002-0.001-0.005-0.003-0.007-0.004c-0.003-0.002-0.006-0.004-0.009-0.006
		c-0.003-0.001-0.004-0.002-0.007-0.004c-0.003-0.002-0.006-0.003-0.009-0.005c-0.003-0.001-0.006-0.004-0.009-0.005
		c-0.002-0.001-0.004-0.003-0.006-0.004c-0.006-0.003-0.01-0.006-0.016-0.009c-0.002-0.002-0.005-0.003-0.008-0.005
		s-0.005-0.003-0.008-0.005c-0.003-0.001-0.006-0.003-0.009-0.005c-0.003-0.001-0.004-0.002-0.007-0.004
		c-0.002-0.002-0.005-0.003-0.008-0.005c-0.002-0.001-0.006-0.003-0.008-0.004c-0.003-0.002-0.005-0.003-0.008-0.005
		c-0.003-0.002-0.005-0.003-0.008-0.005c-0.002-0.001-0.005-0.003-0.008-0.005c-0.002-0.001-0.006-0.003-0.008-0.004
		c-0.003-0.001-0.006-0.003-0.009-0.005c-0.002-0.001-0.005-0.003-0.008-0.005s-0.005-0.003-0.007-0.004
		c-0.003-0.002-0.006-0.003-0.009-0.005c-0.002-0.001-0.005-0.003-0.008-0.004c-0.002-0.001-0.005-0.003-0.007-0.004
		c-0.011-0.006-0.022-0.013-0.034-0.02c-0.002-0.001-0.004-0.003-0.006-0.004c-0.003-0.002-0.006-0.003-0.009-0.005
		c-0.002-0.001-0.004-0.003-0.007-0.004c-0.003-0.002-0.006-0.003-0.009-0.005c-0.002-0.001-0.005-0.003-0.007-0.004
		c-0.003-0.001-0.006-0.003-0.009-0.005c-0.002-0.002-0.004-0.003-0.007-0.004c-0.002-0.002-0.005-0.003-0.008-0.005
		c-0.003-0.002-0.005-0.003-0.008-0.005c-0.002-0.001-0.005-0.003-0.008-0.005c-0.003-0.001-0.004-0.002-0.007-0.004
		c-0.003-0.001-0.006-0.003-0.009-0.005c-0.002-0.001-0.005-0.003-0.007-0.004c-0.003-0.002-0.006-0.004-0.009-0.005
		c-0.001,0-0.001-0.001-0.002-0.001c-0.009-0.005-0.018-0.01-0.026-0.015c0,0-0.002-0.001-0.002-0.001
		c-0.004-0.002-0.007-0.004-0.011-0.006c-0.002-0.001-0.003-0.002-0.005-0.003c-0.003-0.002-0.007-0.004-0.01-0.006
		c-0.001,0-0.004-0.002-0.006-0.003c-0.003-0.002-0.006-0.004-0.01-0.006c-0.002-0.001-0.004-0.002-0.006-0.003
		c-0.003-0.002-0.006-0.004-0.01-0.006C39.003,3.48,39,3.479,38.999,3.478c-0.003-0.002-0.007-0.004-0.01-0.006
		c-0.001-0.001-0.004-0.002-0.005-0.003c-0.003-0.002-0.007-0.004-0.011-0.006c-0.001,0-0.003-0.002-0.004-0.002
		c-0.004-0.002-0.008-0.004-0.012-0.007c0,0-0.001,0-0.001-0.001c-0.015-0.008-0.029-0.017-0.043-0.025c-0.001,0,0,0-0.001,0
		c-0.004-0.002-0.008-0.004-0.011-0.007c-0.002-0.001-0.003-0.001-0.005-0.003c-0.003-0.002-0.007-0.004-0.011-0.006
		c-0.001,0-0.002-0.001-0.004-0.002c-0.004-0.002-0.008-0.004-0.012-0.006c-0.001-0.001-0.003-0.002-0.004-0.002
		c-0.004-0.002-0.007-0.004-0.011-0.007c-0.001,0-0.003-0.001-0.004-0.002c-0.004-0.002-0.008-0.004-0.011-0.006
		c-0.001-0.001-0.003-0.002-0.005-0.002c-0.004-0.002-0.008-0.004-0.012-0.007c0,0-0.001,0-0.002-0.001
		c-0.02-0.011-0.039-0.022-0.059-0.034c0,0,0,0-0.001,0c-0.004-0.002-0.008-0.005-0.013-0.007c0,0-0.002-0.001-0.003-0.002
		c-0.004-0.002-0.009-0.005-0.013-0.007c-0.001,0-0.002-0.001-0.003-0.001c-0.004-0.002-0.008-0.005-0.012-0.007
		c-0.001-0.001-0.002-0.001-0.003-0.002c-0.004-0.002-0.008-0.004-0.013-0.007c0,0-0.002-0.001-0.003-0.001
		c-0.004-0.002-0.009-0.005-0.013-0.007c-0.001,0-0.002-0.001-0.002-0.001c-0.03-0.017-0.059-0.033-0.089-0.049
		c0,0-0.002-0.001-0.002-0.001c-0.004-0.002-0.009-0.005-0.013-0.007c0,0-0.002-0.001-0.003-0.001
		c-0.004-0.002-0.008-0.004-0.013-0.007c-0.001-0.001-0.001-0.001-0.003-0.002c-0.004-0.002-0.009-0.005-0.013-0.007
		c0,0-0.001,0-0.002-0.001c-0.004-0.002-0.009-0.005-0.014-0.008c-0.001,0-0.001,0-0.001,0c-0.03-0.017-0.061-0.033-0.091-0.05
		L38.433,3.16c-0.005-0.002-0.009-0.005-0.014-0.008c-0.001,0,0,0-0.001,0c-0.005-0.002-0.009-0.005-0.014-0.008c0,0,0,0-0.001,0
		c-0.041-0.022-0.082-0.044-0.123-0.066l-0.001,0c-0.005-0.003-0.01-0.005-0.015-0.008h0c-0.005-0.003-0.01-0.005-0.015-0.008h0
		C37.553,2.688,36.84,2.347,36.109,2.039L36.109,2.039z M26,0v8c0.321,0,0.645,0.008,0.963,0.025l0.418-7.989
		c-0.314-0.017-0.63-0.027-0.948-0.033l0,0c-0.007,0-0.014,0-0.021,0h0c-0.007,0-0.014,0-0.021,0c0,0-0.001,0-0.002,0
		c-0.006,0-0.012,0-0.019,0c-0.001,0-0.002,0-0.003,0c-0.006,0-0.012,0-0.018,0c-0.002,0-0.002,0-0.004,0c-0.006,0-0.011,0-0.017,0
		c-0.002,0-0.003,0-0.004,0c-0.005,0-0.011,0-0.017,0c-0.001,0-0.004,0-0.005,0c-0.005,0-0.011,0-0.016,0c-0.003,0-0.003,0-0.006,0
		c-0.005,0-0.01,0-0.015,0c-0.002,0-0.004,0-0.006,0c-0.005,0-0.01,0-0.015,0c-0.001,0-0.005,0-0.006,0c-0.005,0-0.01,0-0.015,0
		c-0.001,0-0.005,0-0.007,0c-0.004,0-0.009,0-0.014,0c-0.003,0-0.005,0-0.008,0c-0.004,0-0.009,0-0.013,0c-0.003,0-0.005,0-0.008,0
		c-0.004,0-0.009,0-0.014,0c-0.002,0-0.005,0-0.008,0c-0.004,0-0.009,0-0.013,0c-0.003,0-0.005,0-0.008,0c-0.004,0-0.009,0-0.013,0
		c-0.002,0-0.005,0-0.008,0c-0.004,0-0.008,0-0.013,0c-0.003,0-0.006,0-0.009,0c-0.004,0-0.009,0-0.014,0c-0.002,0-0.005,0-0.007,0
		c-0.005,0-0.01,0-0.016,0c-0.002,0-0.003,0-0.006,0c-0.005,0-0.011,0-0.017,0c-0.002,0-0.003,0-0.005,0C26.014,0,26.007,0,26,0
		L26,0L26,0z"/>
</g>
</svg>
