<?xml version="1.0" encoding="utf-8"?>
<!-- Generator: Adobe Illustrator 15.1.0, SVG Export Plug-In . SVG Version: 6.00 Build 0)  -->
<!DOCTYPE svg PUBLIC "-//W3C//DTD SVG 1.1//EN" "http://www.w3.org/Graphics/SVG/1.1/DTD/svg11.dtd">
<svg version="1.1" id="Layer_1" xmlns="http://www.w3.org/2000/svg" xmlns:xlink="http://www.w3.org/1999/xlink" x="0px" y="0px"
	 width="44px" height="46.083px" viewBox="0 0 44 46.083" enable-background="new 0 0 44 46.083" xml:space="preserve">
<g>
	<path fill="#FFFFFF" d="M18,26.083h-8c-0.55,0-1,0.451-1,1v7c0,0.551,0.45,1,1,1h8c0.55,0,1-0.449,1-1v-7
		C19,26.534,18.55,26.083,18,26.083z M11,28.083h2v5h-2V28.083z M17,33.083h-2v-5h2V33.083z"/>
	<path fill="#FFFFFF" d="M30,30.083h-2c-0.552,0-1,0.447-1,1s0.448,1,1,1h2c0.552,0,1-0.447,1-1S30.552,30.083,30,30.083z"/>
	<path fill="#FFFFFF" d="M43,44.083h-3v-21h2c0.98,0,1.32-0.58,1.42-0.83c0.1-0.24,0.27-0.89-0.42-1.58L23.41,1.083
		c-0.75-0.75-2.07-0.75-2.82,0L12,9.673v-3.59h1c0.552,0,1-0.447,1-1s-0.448-1-1-1h-2H7H5c-0.552,0-1,0.447-1,1s0.448,1,1,1h1v9.59
		l-5,5c-0.69,0.69-0.52,1.34-0.42,1.58c0.1,0.25,0.44,0.83,1.42,0.83h2v15.35c-2.33,0.812-4,3.04-4,5.649
		c0,0.25,0.01,0.49,0.04,0.721C0.01,44.893,0,44.984,0,45.083c0,0.551,0.45,1,1,1h0.1H6h12.9H24h10h4h5c0.55,0,1-0.449,1-1
		C44,44.534,43.55,44.083,43,44.083z M8,6.083h2v5.59l-2,2V6.083z M3.42,21.083l2.12-2.12c0.14,0.08,0.29,0.12,0.46,0.12h3
		c0.55,0,1-0.45,1-1s-0.45-1-1-1H7.42l2-2l0.12-0.12c0.14,0.08,0.29,0.12,0.46,0.12h2h1c0.55,0,1-0.45,1-1s-0.45-1-1-1h-1v-0.58
		l1.53-1.54c0.14,0.08,0.3,0.12,0.47,0.12h3c0.55,0,1-0.45,1-1s-0.45-1-1-1h-1.59l2.12-2.12c0.14,0.08,0.3,0.12,0.47,0.12h3
		c0.55,0,1-0.45,1-1s-0.45-1-1-1h-1.59L22,2.494l18.58,18.59H38H6L3.42,21.083L3.42,21.083z M4,44.083H2c0-1.479,0.8-2.77,2-3.459
		c0.59-0.34,1.27-0.541,2-0.541c1.25,0,2.45,0.601,3.2,1.601c0.38,0.5,1.22,0.5,1.6,0c0.75-1,1.95-1.601,3.2-1.601
		c2.21,0,4,1.791,4,4H4z M25,44.083v-16h8v16H25z M35,44.083v-17c0-0.549-0.45-1-1-1H24c-0.55,0-1,0.451-1,1v17h-3
		c0-3.31-2.69-6-6-6c-1.48,0-2.91,0.561-4,1.53c-1.09-0.971-2.52-1.53-4-1.53v-15h32v21H35z"/>
</g>
</svg>
