<?xml version="1.0" encoding="utf-8"?>
<!-- Generator: Adobe Illustrator 15.1.0, SVG Export Plug-In . SVG Version: 6.00 Build 0)  -->
<!DOCTYPE svg PUBLIC "-//W3C//DTD SVG 1.1//EN" "http://www.w3.org/Graphics/SVG/1.1/DTD/svg11.dtd">
<svg version="1.1" id="Layer_1" xmlns="http://www.w3.org/2000/svg" xmlns:xlink="http://www.w3.org/1999/xlink" x="0px" y="0px"
	 width="58px" height="50px" viewBox="0 0 58 50" enable-background="new 0 0 58 50" xml:space="preserve">
<g>
	<rect x="36" y="5.11" fill="#FFFFFF" width="2" height="3.89"/>
	<rect x="41" y="5.11" fill="#FFFFFF" width="2" height="3.89"/>
	<rect x="46" y="5" fill="#FFFFFF" width="2" height="4"/>
	<rect x="36" y="12" fill="#FFFFFF" width="2" height="4"/>
	<rect x="41" y="12" fill="#FFFFFF" width="2" height="4"/>
	<rect x="46" y="12" fill="#FFFFFF" width="2" height="4"/>
	<rect x="46" y="19" fill="#FFFFFF" width="2" height="4"/>
	<rect x="46" y="26.03" fill="#FFFFFF" width="2" height="3.97"/>
	<rect x="46" y="33" fill="#FFFFFF" width="2" height="4"/>
	<path fill="#FFFFFF" d="M52,41V2c0-1.1-0.9-2-2-2H34c-1.1,0-2,0.9-2,2v14.25l-6.86-1.08c-0.62-0.1-1.66-0.1-2.28,0L5.83,17.86
		C4.8,18.02,4,18.96,4,20v28H1c-0.55,0-1,0.45-1,1s0.45,1,1,1h5h3h8h14h2h1h5h3h5h3h6.59c0.4,0,0.76-0.24,0.92-0.609
		C57.83,48.63,58,47.83,58,47C58,43.689,55.311,41,52,41z M55.87,48H52h-1h-4h-3v-7.87c1.73,0.44,3,2.011,3,3.87
		c0,0.43,0.27,0.811,0.68,0.95c0.41,0.13,0.86,0,1.12-0.351c0.33-0.431,0.74-0.791,1.2-1.061c0.311-0.18,0.65-0.32,1-0.41
		c0.32-0.09,0.66-0.13,1-0.13c2.21,0,4,1.79,4,4C56,47.33,55.96,47.67,55.87,48z M33.1,48H33h-0.91H32v-2
		c0.35,0,0.68-0.09,0.971-0.25c0.01-0.01,0.02-0.01,0.029-0.02c0.42-0.24,0.74-0.631,0.891-1.092C33.92,44.6,33.96,44.57,34,44.539
		V44v-3v-0.58l1.71-1.71c0.28-0.29,0.37-0.72,0.21-1.09C35.77,37.24,35.4,37,35,37h-1h-1c-0.109,0-0.21,0.02-0.311,0.061
		l-0.539-3.24c-0.03-0.17-0.08-0.329-0.15-0.479C31.67,32.561,30.87,32,30,32H18c-1.04,0-1.98,0.8-2.15,1.82l-0.54,3.238
		C15.21,37.02,15.11,37,15,37h-2c-0.4,0-0.77,0.24-0.92,0.62c-0.16,0.37-0.07,0.8,0.21,1.09l1.76,1.76C14.01,40.65,14,40.84,14,41v3
		c0,1.1,0.9,2,2,2v2h-6V27h22h1h1h2h2v13.7V44v1v3H33.1z M22,35h3c0.55,0,1-0.45,1-1h4c0.061,0,0.17,0.09,0.18,0.15L30.82,38H17.18
		l0.64-3.85C17.83,34.09,17.94,34,18,34h3C21,34.55,21.45,35,22,35z M16,41c0-0.33,0.14-0.71,0.21-0.79
		c0.06-0.06,0.12-0.13,0.18-0.21h15.219c0.061,0.07,0.111,0.13,0.17,0.189C31.859,40.29,32,40.67,32,41v3h-1h-1H17h-1V41z M19,48v-2
		h10v2H19z M38,25h-4h-1h-1H10v-1h22h1h1h4V25z M40,41.359V40v-1.189V23c0-0.55-0.45-1-1-1h-1h-2h-2h-1h-1H9c-0.55,0-1,0.45-1,1v25
		H6V20c0-0.06,0.09-0.16,0.14-0.17l17.03-2.69c0.21-0.029,0.51-0.05,0.83-0.05s0.62,0.021,0.83,0.05L32,18.27l1,0.16l1,0.16l2,0.311
		l1,0.159l1,0.16l3,0.471l0.859,0.14C41.91,19.84,42,19.94,42,20v2.94v2.75v4.11v2.74v4.12v1.43v1.01v1.03V48h-2V41.359z M34,2h16
		v39.35c-0.471,0.16-0.92,0.392-1.34,0.67c-0.71-2.028-2.49-3.568-4.66-3.93V20c0-1.04-0.8-1.98-1.83-2.14L34,16.57V2z"/>
	<circle fill="#FFFFFF" cx="19" cy="42" r="1"/>
	<circle fill="#FFFFFF" cx="29" cy="42" r="1"/>
	<path fill="#FFFFFF" d="M22,43h4c0.55,0,1-0.45,1-1s-0.45-1-1-1h-4c-0.55,0-1,0.45-1,1S21.45,43,22,43z"/>
</g>
</svg>
