<?xml version="1.0" encoding="utf-8"?>
<!-- Generator: Adobe Illustrator 15.1.0, SVG Export Plug-In . SVG Version: 6.00 Build 0)  -->
<!DOCTYPE svg PUBLIC "-//W3C//DTD SVG 1.1//EN" "http://www.w3.org/Graphics/SVG/1.1/DTD/svg11.dtd">
<svg version="1.1" id="Layer_1" xmlns="http://www.w3.org/2000/svg" xmlns:xlink="http://www.w3.org/1999/xlink" x="0px" y="0px"
	 width="50px" height="59px" viewBox="0 0 50 59" enable-background="new 0 0 50 59" xml:space="preserve">
<g>
	<rect x="10" y="16" width="2" height="3"/>
	<rect x="15" y="16" width="2" height="3"/>
	<rect x="20" y="16" width="2" height="3"/>
	<rect x="25" y="16" width="2" height="3"/>
	<rect x="10" y="21" width="2" height="3"/>
	<rect x="15" y="21" width="2" height="3"/>
	<rect x="20" y="21" width="2" height="3"/>
	<rect x="25" y="21" width="2" height="3"/>
	<rect x="10" y="26" width="2" height="3"/>
	<rect x="15" y="26" width="2" height="3"/>
	<rect x="20" y="26" width="2" height="3"/>
	<rect x="25" y="26" width="2" height="3"/>
	<rect x="10" y="32" width="2" height="3"/>
	<rect x="15" y="32" width="2" height="3"/>
	<rect x="20" y="32" width="2" height="3"/>
	<rect x="10" y="37" width="2" height="3"/>
	<rect x="10" y="42" width="2" height="3"/>
	<rect x="10" y="47" width="2" height="3"/>
	<path d="M48,36H38v-1c0-1.1-0.9-2-2-2h-4V14c0-1.1-0.9-2-2-2h-5v-1c0-1.1-0.9-2-2-2h-1V1c0-0.55-0.45-1-1-1s-1,0.45-1,1v8h-1V5
		c0-0.55-0.45-1-1-1s-1,0.45-1,1v4h-3c-1.1,0-2,0.9-2,2v1H7c-1.1,0-2,0.9-2,2v43H1c-0.552,0-1,0.447-1,1s0.448,1,1,1h6h1h8h14h18
		c1.1,0,2-0.9,2-2V38C50,36.9,49.1,36,48,36z M36,36v1v1h-1v-1v-1h-3h-2h-1v1v1h-1v-1v-1v-1h2h2h4V36z M24,50v1v1h-1v-1v-2v-1h1v1
		V50z M41,51v1h-1v-1v-2v-1h1v1V51z M43,49v-1c0-1.1-0.9-2-2-2h-1c-1.1,0-2,0.9-2,2v1h-6h-2h-4v-1c0-1.1-0.9-2-2-2h-1
		c-1.1,0-2,0.9-2,2v1h-5V39h14h2h16v10H43z M16,51h5v1c0,1.1,0.9,2,2,2h1c1.1,0,2-0.9,2-2v-1h4h2h6v1c0,1.1,0.9,2,2,2h1
		c1.1,0,2-0.9,2-2v-1h5v6H32H16V51z M14,11h3h2h1h2h1v1h-1h-2h-1h-2h-3V11z M8,57H7V14h7h9h7v19h-2c-0.36,0-0.71,0.1-1,0.27V32h-2v3
		h1v1H16c-1.1,0-2,0.9-2,2v19H8z"/>
</g>
</svg>
