<?xml version="1.0" encoding="utf-8"?>
<!-- Generator: Adobe Illustrator 15.1.0, SVG Export Plug-In . SVG Version: 6.00 Build 0)  -->
<!DOCTYPE svg PUBLIC "-//W3C//DTD SVG 1.1//EN" "http://www.w3.org/Graphics/SVG/1.1/DTD/svg11.dtd">
<svg version="1.1" id="Layer_1" xmlns="http://www.w3.org/2000/svg" xmlns:xlink="http://www.w3.org/1999/xlink" x="0px" y="0px"
	 width="52px" height="52px" viewBox="0 0 52 52" enable-background="new 0 0 52 52" xml:space="preserve">
<g>
	<path fill="#FFFFFF" d="M51,50h-3c0-2.97-2.16-5.439-5-5.91V17c0-1.1-0.9-2-2-2H30V2c0-1.1-0.9-2-2-2H7C5.9,0,5,0.9,5,2v48H1
		c-0.55,0-1,0.45-1,1s0.45,1,1,1h6h2h16h3h1.1h3.49H41h5.9H51c0.55,0,1-0.45,1-1S51.55,50,51,50z M41,17v27.09
		c-1.109,0.19-2.16,0.69-3,1.44c-1.09-0.97-2.52-1.53-4-1.53c-0.76,0-1.48,0.141-2.15,0.4c-0.539-0.461-1.17-0.82-1.85-1.051
		C29.37,43.12,28.7,43,28,43c-1.07,0-2.1,0.28-3,0.811V17h3h2H41z M7,2h21v13h-3c-1.1,0-2,0.9-2,2v24.54
		c-0.58-0.521-1.25-0.931-2-1.19V40h-2c-1.1,0-2.12,0.29-3,0.811V40h-2v2.7c-0.47,0.7-0.79,1.51-0.93,2.37
		C10.53,45.47,8.51,47.47,8.09,50H7V2z M23,50H10.13c0.44-1.72,2.01-3,3.87-3c0.55,0,1-0.45,1-1c0-2.21,1.79-4,4-4v1h2v-0.46
		c1.2,0.69,2,1.979,2,3.46c0,0.43,0.27,0.811,0.68,0.95C23.79,46.98,23.89,47,24,47c0.31,0,0.6-0.141,0.8-0.4
		c0.06-0.08,0.13-0.158,0.2-0.238C25.75,45.5,26.85,45,28,45c0.73,0,1.41,0.2,2,0.54c-1.23,1.09-2,2.69-2,4.46H23z M43,50h-9.09H30
		c0-1.22,0.55-2.32,1.42-3.061c0.25-0.209,0.54-0.399,0.85-0.539c0.301-0.15,0.631-0.262,0.972-0.33C33.48,46.03,33.74,46,34,46
		c1.25,0,2.45,0.6,3.2,1.6c0.38,0.5,1.22,0.5,1.6,0c0.55-0.729,1.33-1.238,2.2-1.47c0.32-0.09,0.66-0.13,1-0.13
		c0.35,0,0.68,0.04,1,0.13c1.73,0.44,3,2.011,3,3.87H43z"/>
	<rect x="9" y="4" fill="#FFFFFF" width="2" height="3"/>
	<rect x="14" y="4" fill="#FFFFFF" width="2" height="3"/>
	<rect x="19" y="4" fill="#FFFFFF" width="2" height="3"/>
	<polygon fill="#FFFFFF" points="27,19 27,22 28,22 29,22 29,19 28,19 	"/>
	<rect x="32" y="19" fill="#FFFFFF" width="2" height="3"/>
	<rect x="37" y="19" fill="#FFFFFF" width="2" height="3"/>
	<rect x="24" y="4" fill="#FFFFFF" width="2" height="3"/>
	<rect x="9" y="9" fill="#FFFFFF" width="2" height="3"/>
	<rect x="14" y="9" fill="#FFFFFF" width="2" height="3"/>
	<rect x="19" y="9" fill="#FFFFFF" width="2" height="3"/>
	<rect x="9" y="14" fill="#FFFFFF" width="2" height="3"/>
	<rect x="14" y="14" fill="#FFFFFF" width="2" height="3"/>
	<rect x="19" y="14" fill="#FFFFFF" width="2" height="3"/>
	<rect x="9" y="19" fill="#FFFFFF" width="2" height="3"/>
	<rect x="14" y="19" fill="#FFFFFF" width="2" height="3"/>
	<rect x="19" y="19" fill="#FFFFFF" width="2" height="3"/>
	<polygon fill="#FFFFFF" points="27,24 27,27 28,27 29,27 29,24 28,24 	"/>
	<rect x="32" y="24" fill="#FFFFFF" width="2" height="3"/>
	<rect x="37" y="24" fill="#FFFFFF" width="2" height="3"/>
	<polygon fill="#FFFFFF" points="27,29 27,32 28,32 29,32 29,29 28,29 	"/>
	<rect x="32" y="29" fill="#FFFFFF" width="2" height="3"/>
	<rect x="37" y="29" fill="#FFFFFF" width="2" height="3"/>
	<polygon fill="#FFFFFF" points="27,34 27,37 28,37 29,37 29,34 28,34 	"/>
	<rect x="32" y="34" fill="#FFFFFF" width="2" height="3"/>
	<rect x="37" y="34" fill="#FFFFFF" width="2" height="3"/>
	<polygon fill="#FFFFFF" points="27,39 27,42 28,42 29,42 29,39 28,39 	"/>
	<rect x="32" y="39" fill="#FFFFFF" width="2" height="3"/>
	<rect x="37" y="39" fill="#FFFFFF" width="2" height="3"/>
	<rect x="9" y="24" fill="#FFFFFF" width="2" height="3"/>
	<rect x="14" y="24" fill="#FFFFFF" width="2" height="3"/>
	<rect x="19" y="24" fill="#FFFFFF" width="2" height="3"/>
	<rect x="9" y="29" fill="#FFFFFF" width="2" height="3"/>
	<rect x="14" y="29" fill="#FFFFFF" width="2" height="3"/>
	<rect x="19" y="29" fill="#FFFFFF" width="2" height="3"/>
	<rect x="9" y="34" fill="#FFFFFF" width="2" height="3"/>
	<rect x="14" y="34" fill="#FFFFFF" width="2" height="3"/>
	<rect x="19" y="34" fill="#FFFFFF" width="2" height="3"/>
	<rect x="9" y="39" fill="#FFFFFF" width="2" height="3"/>
	<rect x="24" y="9" fill="#FFFFFF" width="2" height="3"/>
</g>
</svg>
