<?xml version="1.0" encoding="utf-8"?>
<!-- Generator: Adobe Illustrator 15.1.0, SVG Export Plug-In . SVG Version: 6.00 Build 0)  -->
<!DOCTYPE svg PUBLIC "-//W3C//DTD SVG 1.1//EN" "http://www.w3.org/Graphics/SVG/1.1/DTD/svg11.dtd">
<svg version="1.1" id="Layer_1" xmlns="http://www.w3.org/2000/svg" xmlns:xlink="http://www.w3.org/1999/xlink" x="0px" y="0px"
	 width="58px" height="46px" viewBox="0 0 58 46" enable-background="new 0 0 58 46" xml:space="preserve">
<path d="M56.87,25.66L36.25,9.16C35.88,8.87,35.44,8.72,35,8.72s-0.88,0.15-1.25,0.44L18.69,21.21L13.97,0.78
	C13.87,0.31,13.44,0.01,12.98,0c-0.48,0.01-0.88,0.36-0.96,0.82L9.44,15.17C9.18,15.35,9,15.66,9,16c0,0.22,0.07,0.42,0.19,0.59
	l-0.83,4.65C8.14,21.42,8,21.69,8,22c0,0.18,0.05,0.35,0.13,0.49l-0.87,4.83C7.1,27.5,7,27.74,7,28c0,0.13,0.03,0.25,0.07,0.37
	l-0.9,5.07c0,0.01-0.01,0.01-0.01,0.01C6.06,33.61,6,33.8,6,34c0,0.08,0.01,0.15,0.03,0.22L5.02,39.82
	c-0.06,0.3,0.02,0.59,0.21,0.819C5.42,40.87,5.7,41,6,41h7v3H1c-0.55,0-1,0.45-1,1s0.45,1,1,1h18h32h3c0.55,0,1-0.45,1-1
	s-0.45-1-1-1h-3v-4.06V38.06V32v-1.94v-1.42l2.13,1.7c0.35,0.29,0.79,0.44,1.25,0.44c0.07,0,0.14,0,0.22-0.011
	c0.52-0.06,1.01-0.329,1.34-0.739l1.25-1.561C57.88,27.61,57.74,26.35,56.87,25.66z M49,44h-2v-2.06h2V44z M15,41h4v1v2h-4V41z
	 M7.92,35H9c0.55,0,1-0.45,1-1s-0.45-1-1-1H8.28l0.71-4H10c0.55,0,1-0.45,1-1s-0.45-1-1-1H9.35l0.72-4H11c0.55,0,1-0.45,1-1
	s-0.45-1-1-1h-0.57l0.71-4H12c0.55,0,1-0.45,1-1s-0.45-1-1-1h-0.5l1.62-9.02L16.96,22.6l-3.83,3.061
	c-0.87,0.689-1.01,1.95-0.32,2.81l1.25,1.561c0.33,0.41,0.82,0.68,1.34,0.739c0.08,0.011,0.15,0.011,0.22,0.011
	c0.46,0,0.9-0.15,1.25-0.44l1.58-1.26L19,31.46V32v6.06V39h-4h-2H7.2L7.92,35z M22.3,26H23v2.06h-2v-1.02L22.3,26z M29.8,20
	l5.2-4.16L40.2,20H29.8z M27.3,22H42c0.19,0,0.37-0.05,0.52-0.15L45.2,24H24.8L27.3,22z M45,28.06h-5.67C39.23,28.02,39.12,28,39,28
	h-8c-0.12,0-0.23,0.02-0.33,0.06H25V26h20V28.06z M45,36.06h-5V34h5V36.06z M22.99,40h-1H21v-2h0.55h1.02H23v2H22.99z M38,30v2v1v1
	v2h-6v-2v-1v-1v-2H38z M25,36.06V34h5v2.06H25z M21,34h0.64H23v2h-0.9h-1.02L21,35.67V34z M30,32h-5v-2h5V32z M23,32h-2v-0.76V30h2
	V32z M25,38h20v2H25V38z M40,32v-2h5v2H40z M47,34h2v2.06h-2V34z M21,42v-0.06h2V44h-2V42z M25,41.94h20V44H25V41.94z M47,40v-2h2v2
	H47z M47,32v-2h2v2H47z M49,28.06h-2V26h0.7l1.3,1.04V28.06z M49.65,25l-0.54-0.44L48.4,24L35,13.28L21.6,24l-0.71,0.56L20.35,25H20
	v0.28l-0.32,0.25L19,26.08l-0.18,0.14l-0.87,0.7l-2.33,1.86l-1.24-1.561l3.07-2.46l0.87-0.689l0.86-0.69L35,10.72l20.62,16.5
	l-1.24,1.561L51,26.08l-1-0.8V25H49.65z"/>
</svg>
