<?xml version="1.0" encoding="utf-8"?>
<!-- Generator: Adobe Illustrator 15.1.0, SVG Export Plug-In . SVG Version: 6.00 Build 0)  -->
<!DOCTYPE svg PUBLIC "-//W3C//DTD SVG 1.1//EN" "http://www.w3.org/Graphics/SVG/1.1/DTD/svg11.dtd">
<svg version="1.1" id="Layer_1" xmlns="http://www.w3.org/2000/svg" xmlns:xlink="http://www.w3.org/1999/xlink" x="0px" y="0px"
	 width="52px" height="52px" viewBox="0 0 52 52" enable-background="new 0 0 52 52" xml:space="preserve">
<g>
	<path d="M9.07,19.96C8.4,20.79,8,21.85,8,23c0,0.55,0.45,1,1,1h3v1c0,0.553,0.448,1,1,1s1-0.447,1-1v-1h13.09
		c0.4,0,0.76-0.24,0.92-0.61c0.26-0.609,0.39-1.26,0.39-1.92c0-2.67-2.17-4.84-4.83-4.84c-0.87,0-1.71,0.24-2.45,0.67
		c-0.18-0.439-0.43-0.85-0.74-1.22C20.78,15.13,21,14.09,21,13c0-4.41-3.59-8-8-8s-8,3.59-8,8C5,15.98,6.64,18.59,9.07,19.96z
		 M19.5,19.17v0.07c0.03,0.399,0.29,0.75,0.68,0.87c0.38,0.13,0.8,0.02,1.07-0.28c0.02-0.021,0.03-0.04,0.05-0.061
		c0.53-0.71,1.38-1.14,2.27-1.14c1.56,0,2.83,1.271,2.83,2.84c0,0.181-0.02,0.36-0.05,0.53h-4.01h-1.75H10.18
		c0.19-0.49,0.5-0.91,0.91-1.23c0.48-0.38,1.08-0.6,1.74-0.6c0.56,0,1-0.45,1-1c0-0.08,0-0.16,0.01-0.229
		c0.12-1.46,1.34-2.61,2.83-2.61c0.41,0,0.79,0.09,1.14,0.24c0.63,0.279,1.15,0.79,1.43,1.42C19.41,18.35,19.5,18.75,19.5,19.17z
		 M13,7c3.31,0,6,2.69,6,6c0,0.62-0.09,1.22-0.27,1.79c-0.62-0.29-1.32-0.46-2.06-0.46c-2.36,0-4.32,1.689-4.75,3.92
		c-0.38,0.07-0.74,0.19-1.08,0.34C8.6,17.73,7,15.55,7,13C7,9.69,9.69,7,13,7z"/>
	<path d="M51,50h-1.47c-1.66-2.39-3.67-4.33-5.92-5.73l-3.57-14.51C39.93,29.31,39.53,29,39.07,29s-0.86,0.31-0.97,0.76l-2.7,10.95
		l-1.51-5C33.76,35.29,33.37,35,32.93,35s-0.83,0.29-0.95,0.71l-1.96,6.48c-2.22,0.59-4.32,1.649-6.23,3.119
		c-1.92-0.84-3.97-1.26-6.09-1.26c-4.75,0-9.17,2.16-12.19,5.95H2c-0.55,0-1,0.45-1,1s0.45,1,1,1h4h43.02H51c0.55,0,1-0.45,1-1
		S51.55,50,51,50z M39.07,34.19l2.17,8.829c-1.3-0.569-2.66-0.979-4.05-1.189L39.07,34.19z M32.93,39.45l0.65,2.16
		c-0.45,0.02-0.89,0.06-1.34,0.12L32.93,39.45z M8.19,50c2.55-2.53,5.92-3.95,9.51-3.95c1.52,0,2.99,0.25,4.39,0.74
		c-0.18,0.17-0.36,0.34-0.53,0.52c-0.38,0.391-0.37,1.03,0.03,1.41c0.19,0.19,0.44,0.28,0.69,0.28c0.26,0,0.52-0.1,0.72-0.31
		c0.5-0.521,1.03-1,1.56-1.431l0.01-0.01c1.47-1.21,3.07-2.13,4.75-2.75c0.75-0.27,1.51-0.48,2.28-0.63
		c0.85-0.17,1.72-0.26,2.59-0.28h0.25c0.08,0,0.17,0,0.25,0.01c0.55,0,1.09,0.04,1.62,0.11c0.14,0.021,0.27,0.03,0.4,0.06
		c1.4,0.211,2.75,0.631,4.04,1.23c1.02,0.46,1.99,1.04,2.92,1.74c1.22,0.899,2.34,2,3.36,3.26H8.19z"/>
	<path d="M20.071,6.929c0.256,0,0.512-0.098,0.707-0.293l1.414-1.414c0.391-0.391,0.391-1.023,0-1.414s-1.023-0.391-1.414,0
		l-1.414,1.414c-0.391,0.391-0.391,1.023,0,1.414C19.56,6.831,19.815,6.929,20.071,6.929z"/>
	<path d="M22,13c0,0.553,0.448,1,1,1h2c0.552,0,1-0.447,1-1s-0.448-1-1-1h-2C22.448,12,22,12.447,22,13z"/>
	<path d="M5.222,19.364l-1.414,1.414c-0.391,0.391-0.391,1.023,0,1.414c0.195,0.195,0.451,0.293,0.707,0.293
		s0.512-0.098,0.707-0.293l1.414-1.414c0.391-0.391,0.391-1.023,0-1.414S5.612,18.974,5.222,19.364z"/>
	<path d="M3,14c0.552,0,1-0.447,1-1s-0.448-1-1-1H1c-0.552,0-1,0.447-1,1s0.448,1,1,1H3z"/>
	<path d="M5.222,6.636c0.195,0.195,0.451,0.293,0.707,0.293S6.44,6.831,6.636,6.636c0.391-0.391,0.391-1.023,0-1.414L5.222,3.808
		c-0.391-0.391-1.023-0.391-1.414,0s-0.391,1.023,0,1.414L5.222,6.636z"/>
	<path d="M13,4c0.552,0,1-0.447,1-1V1c0-0.553-0.448-1-1-1s-1,0.447-1,1v2C12,3.553,12.448,4,13,4z"/>
</g>
</svg>
